<?xml version="1.0" encoding="UTF-8"?>
<svg version="1.1" xmlns="http://www.w3.org/2000/svg" width="456" height="456">
<path d="M0 0 C150.48 0 300.96 0 456 0 C456 150.48 456 300.96 456 456 C305.52 456 155.04 456 0 456 C0 305.52 0 155.04 0 0 Z " fill="#242424" transform="translate(0,0)"/>
<path d="M0 0 C38.28 0 76.56 0 116 0 C114.84540057 20.78278969 114.84540057 20.78278969 114.0625 29.34765625 C113.97750244 30.2964415 113.89250488 31.24522675 113.80493164 32.22276306 C113.62836601 34.18258685 113.45023681 36.14227042 113.27050781 38.10180664 C112.99497326 41.11751736 112.72777629 44.13389934 112.4609375 47.15039062 C112.28695333 49.07035742 112.11249307 50.99028115 111.9375 52.91015625 C111.85830322 53.81097427 111.77910645 54.7117923 111.69750977 55.63990784 C111.11467388 61.88532612 111.11467388 61.88532612 110 63 C108.52645652 63.09304018 107.04849409 63.11746265 105.57202148 63.11352539 C104.63112167 63.11344986 103.69022186 63.11337433 102.72080994 63.11329651 C101.69790359 63.10813522 100.67499725 63.10297394 99.62109375 63.09765625 C98.57929459 63.0962413 97.53749542 63.09482635 96.46412659 63.09336853 C93.12188906 63.0877508 89.77971743 63.0751953 86.4375 63.0625 C84.17773534 63.05748728 81.91796963 63.05292398 79.65820312 63.04882812 C74.10542266 63.03862456 68.55278548 63.01905264 63 63 C63 78.18 63 93.36 63 109 C76.53 109 90.06 109 104 109 C104.020625 115.3525 104.04125 121.705 104.0625 128.25 C104.071604 130.2084082 104.08070801 132.16681641 104.09008789 134.18457031 C104.12127563 146.16036911 103.68651983 158.04266242 103 170 C89.8 170 76.6 170 63 170 C63 204.98 63 239.96 63 276 C51.76770209 279.36968937 51.76770209 279.36968937 46.56640625 280.02734375 C44.86411865 280.25309082 44.86411865 280.25309082 43.12744141 280.48339844 C41.95101074 280.63325195 40.77458008 280.78310547 39.5625 280.9375 C30.2290729 282.18686605 21.03189071 283.62962601 11.86157227 285.78100586 C7.66404751 286.74794176 4.4144333 287 0 287 C0 192.29 0 97.58 0 0 Z " fill="#F3C303" transform="translate(171,84)"/>
<path d="M0 0 C38.28 0 76.56 0 116 0 C116 0.66 116 1.32 116 2 C78.05 2 40.1 2 1 2 C1.33 95.39 1.66 188.78 2 285 C9.92 283.35 17.84 281.7 26 280 C29.96 280 33.92 280 38 280 C38 280.33 38 280.66 38 281 C33.54283005 281.81896775 29.08407708 282.62898602 24.625 283.4375 C22.74748047 283.78264648 22.74748047 283.78264648 20.83203125 284.13476562 C19.60097656 284.35712891 18.36992187 284.57949219 17.1015625 284.80859375 C15.98088379 285.01282959 14.86020508 285.21706543 13.70556641 285.42749023 C9.16099238 286.12962662 4.57567272 286.54243273 0 287 C0 192.29 0 97.58 0 0 Z " fill="#DCBA27" transform="translate(171,84)"/>
<path d="M0 0 C0.33 0 0.66 0 1 0 C1 94.71 1 189.42 1 287 C11.395 285.02 11.395 285.02 22 283 C23.32 283.33 24.64 283.66 26 284 C8.99640288 289.84172662 8.99640288 289.84172662 1 289 C0 288 0 288 -0.1241985 286.02913707 C-0.12381878 285.15464115 -0.12343906 284.28014523 -0.12304783 283.37914944 C-0.12503888 282.37394046 -0.12702993 281.36873149 -0.12908131 280.33306164 C-0.12616847 279.21538137 -0.12325563 278.0977011 -0.12025452 276.94615173 C-0.12110894 275.76923423 -0.12196337 274.59231672 -0.12284368 273.37973505 C-0.12421186 270.09831915 -0.12106442 266.81696215 -0.11606562 263.53555334 C-0.1117644 260.00247722 -0.11320731 256.46940307 -0.1139679 252.93632507 C-0.11449334 246.81016034 -0.11134441 240.68400622 -0.10573006 234.55784416 C-0.09761782 225.70034167 -0.09500012 216.84284433 -0.09374207 207.98533852 C-0.09155111 193.61611795 -0.08488985 179.24690304 -0.07543945 164.87768555 C-0.06626646 150.91577177 -0.05918508 136.95385954 -0.05493164 122.99194336 C-0.05466892 122.13195136 -0.05440619 121.27195935 -0.05413551 120.38590699 C-0.05283051 116.07176511 -0.05156679 111.75762322 -0.05032361 107.44348133 C-0.03994964 71.62898355 -0.02233014 35.81449222 0 0 Z " fill="#423407" transform="translate(170,84)"/>
<path d="M0 0 C0.33 0 0.66 0 1 0 C1.44526339 10.9171987 0.46334871 21.35654863 -0.93505859 32.1796875 C-1.88828701 39.91381057 -2.25569635 47.43100139 -1.80078125 55.21411133 C-1.67346411 58.40391212 -1.78988798 60.60970289 -3.31640625 63.4453125 C-11.62198628 68.25698769 -24.26698209 66.11826761 -33.6875 66.0625 C-35.17903494 66.05747144 -36.67057154 66.05291095 -38.16210938 66.04882812 C-41.77477462 66.03793804 -45.38737632 66.02074936 -49 66 C-49.88190275 70.08704635 -50.07035102 73.74721723 -50 77.9375 C-49.89063505 88.30728605 -50.46174676 98.64721427 -51 109 C-51.66 109 -52.32 109 -53 109 C-53 93.82 -53 78.64 -53 63 C-37.49 62.67 -21.98 62.34 -6 62 C-5.65066406 58.02710938 -5.30132812 54.05421875 -4.94140625 49.9609375 C-4.60106167 46.10851163 -4.25991998 42.25615712 -3.91870117 38.40380859 C-3.68192936 35.72877359 -3.44630699 33.05364105 -3.21166992 30.37841797 C-2.87376474 26.53072812 -2.53287448 22.68331257 -2.19140625 18.8359375 C-2.03509483 17.04499161 -2.03509483 17.04499161 -1.87562561 15.21786499 C-1.77559738 14.09715607 -1.67556915 12.97644714 -1.57250977 11.82177734 C-1.48590591 10.84026703 -1.39930206 9.85875671 -1.31007385 8.84750366 C-0.98621056 5.87336735 -0.51875977 2.94586252 0 0 Z " fill="#3E350F" transform="translate(287,84)"/>
<path d="M0 0 C0.66 0 1.32 0 2 0 C2.16824601 7.90187596 2.32813283 15.8038892 2.48217773 23.70605469 C2.53498014 26.39491554 2.59045324 29.0837017 2.64819336 31.77246094 C2.73014089 35.63468346 2.80520268 39.49698746 2.87890625 43.359375 C2.90594131 44.5636615 2.93297638 45.767948 2.96083069 47.00872803 C2.98092697 48.12958801 3.00102325 49.250448 3.02172852 50.40527344 C3.04171402 51.39122498 3.06169952 52.37717651 3.08229065 53.39300537 C3.00573524 55.81830585 2.90257872 57.74687513 2 60 C0.515 60.495 0.515 60.495 -1 61 C-1.06780292 47.07403438 -0.87178502 33.17072891 -0.5 19.25 C-0.45158955 17.3658914 -0.40341158 15.48177681 -0.35546875 13.59765625 C-0.23964167 9.0650311 -0.12072959 4.53249711 0 0 Z " fill="#362C09" transform="translate(275,193)"/>
<path d="M0 0 C0.66 0 1.32 0 2 0 C1.979375 1.051875 1.95875 2.10375 1.9375 3.1875 C1.88929767 7.22656139 1.88929767 7.22656139 3 12 C8.445 11.01 8.445 11.01 14 10 C14 10.66 14 11.32 14 12 C16.64 11.34 19.28 10.68 22 10 C22 10.66 22 11.32 22 12 C27.61 12 33.22 12 39 12 C39 12.33 39 12.66 39 13 C26.13 13 13.26 13 0 13 C0 8.71 0 4.42 0 0 Z " fill="#312D23" transform="translate(236,180)"/>
<path d="M0 0 C0.33 0 0.66 0 1 0 C1.26963198 9.30355153 0.42278806 18.44620076 -0.5 27.6875 C-0.6450127 29.17898973 -0.78954727 30.67052602 -0.93359375 32.16210938 C-1.28356165 35.77529219 -1.63996149 39.38780509 -2 43 C-2.33 43 -2.66 43 -3 43 C-3 35.08 -3 27.16 -3 19 C-2.34 19 -1.68 19 -1 19 C-1.01160156 17.96359375 -1.02320313 16.9271875 -1.03515625 15.859375 C-1.04453837 14.48958514 -1.05363812 13.11979332 -1.0625 11.75 C-1.07506836 10.72712891 -1.07506836 10.72712891 -1.08789062 9.68359375 C-1.10428392 6.30657446 -1.05628768 3.22708361 0 0 Z " fill="#DBB82A" transform="translate(285,91)"/>
<path d="M0 0 C0.33 0 0.66 0 1 0 C3.64213754 19.48576435 3.64213754 19.48576435 1 26 C0.01 26.33 -0.98 26.66 -2 27 C-2 20.4 -2 13.8 -2 7 C-1.67 7 -1.34 7 -1 7 C-0.67 4.69 -0.34 2.38 0 0 Z " fill="#3F381B" transform="translate(276,227)"/>
<path d="M0 0 C2.8992226 0.46761655 3.86675182 0.86675182 6 3 C1.71 3 -2.58 3 -7 3 C-6.67 2.34 -6.34 1.68 -6 1 C-4.7934375 1.0309375 -4.7934375 1.0309375 -3.5625 1.0625 C-1.06645115 1.29633621 -1.06645115 1.29633621 0 0 Z " fill="#302F36" transform="translate(247,80)"/>
<path d="M0 0 C0.99 0 1.98 0 3 0 C3.33 1.65 3.66 3.3 4 5 C3.01 5.66 2.02 6.32 1 7 C0.67 4.69 0.34 2.38 0 0 Z " fill="#31302A" transform="translate(284,126)"/>
<path d="M0 0 C0.66 0 1.32 0 2 0 C1.44271087 3.34373475 0.64826111 6.03312999 -1 9 C-1.09765625 2.84765625 -1.09765625 2.84765625 -1 1 C-0.67 0.67 -0.34 0.34 0 0 Z " fill="#EBC217" transform="translate(285,86)"/>
</svg>
