<?xml version="1.0" encoding="UTF-8"?>
<svg version="1.1" xmlns="http://www.w3.org/2000/svg" width="456" height="456">
<path d="M0 0 C150.48 0 300.96 0 456 0 C456 150.48 456 300.96 456 456 C305.52 456 155.04 456 0 456 C0 305.52 0 155.04 0 0 Z " fill="#300C51" transform="translate(0,0)"/>
<path d="M0 0 C33.99 0 67.98 0 103 0 C100 43 100 43 98 55 C84.14 55 70.28 55 56 55 C56 68.53 56 82.06 56 96 C67.88 96 79.76 96 92 96 C92.0890418 113.71931809 91.82321958 131.30077903 91 149 C79.45 149 67.9 149 56 149 C56 180.02 56 211.04 56 243 C28.05970149 248.82089552 28.05970149 248.82089552 16.75 250.8125 C15.55632812 251.02841797 14.36265625 251.24433594 13.1328125 251.46679688 C4.50793651 253 4.50793651 253 0 253 C0 169.51 0 86.02 0 0 Z " fill="#FDFDFD" transform="translate(177,100)"/>
<path d="M0 0 C0.76600997 0.00092179 1.53201994 0.00184359 2.32124233 0.00279331 C3.19768902 0.00141865 4.0741357 0.00004398 4.97714138 -0.00137234 C6.43046368 0.00402058 6.43046368 0.00402058 7.91314602 0.00952244 C8.92766338 0.00937641 9.94218075 0.00923038 10.98744106 0.00907993 C14.35844936 0.00977954 17.72940317 0.01757414 21.10040188 0.02539158 C23.43067806 0.02725559 25.76095463 0.02867957 28.09123135 0.0296793 C34.23811828 0.03350581 40.38498176 0.04333723 46.5318594 0.05438328 C52.79884429 0.06459454 59.06583295 0.06917631 65.33282375 0.0742197 C77.63947471 0.08495938 89.94610822 0.10203739 102.25274563 0.12304783 C102.25274563 0.45304783 102.25274563 0.78304783 102.25274563 1.12304783 C68.26274563 1.12304783 34.27274563 1.12304783 -0.74725437 1.12304783 C-0.72405125 17.40261814 -0.70084812 33.68218845 -0.67694187 50.45507908 C-0.66672825 60.740887 -0.65701815 71.02669127 -0.64959812 81.31250095 C-0.64567063 86.71362412 -0.64164121 92.11474717 -0.63739109 97.51587009 C-0.63686359 98.19283815 -0.6363361 98.86980621 -0.63579261 99.56728846 C-0.62708759 110.50474066 -0.61131643 121.44217189 -0.59294878 132.37961165 C-0.57426354 143.59951731 -0.56329033 154.81941248 -0.55907738 166.03933448 C-0.55646445 172.34343695 -0.55030078 178.64749184 -0.53579426 184.95157909 C-0.52226202 190.88007005 -0.51802287 196.80849362 -0.52103901 202.73699856 C-0.52048689 204.91753219 -0.5164836 207.09806798 -0.50884342 209.27858829 C-0.49895037 212.24662623 -0.5012648 215.21440689 -0.50674534 218.18245029 C-0.50091966 219.05306608 -0.49509397 219.92368188 -0.48909175 220.82067996 C-0.51901195 226.7806842 -0.51901195 226.7806842 -2.74725437 230.12304783 C-2.80332859 228.55103611 -2.80332859 228.55103611 -2.86053562 226.94726658 C-2.92619952 225.56832478 -2.99264672 224.18942012 -3.05975437 222.81054783 C-3.08231297 222.12025486 -3.10487156 221.42996189 -3.12811375 220.71875095 C-3.32770612 216.69413332 -3.32770612 216.69413332 -5.16522312 213.20507908 C-6.76914555 212.05551698 -6.76914555 212.05551698 -8.74725437 211.12304783 C-8.25225437 210.73117283 -7.75725437 210.33929783 -7.24725437 209.93554783 C-5.29132294 207.57213068 -5.50517464 206.1086978 -5.74725437 203.12304783 C-6.73725437 202.79304783 -7.72725437 202.46304783 -8.74725437 202.12304783 C-8.08725437 201.13304783 -7.42725437 200.14304783 -6.74725437 199.12304783 C-8.06725437 199.12304783 -9.38725437 199.12304783 -10.74725437 199.12304783 C-11.07725437 199.78304783 -11.40725437 200.44304783 -11.74725437 201.12304783 C-12.07725437 200.79304783 -12.40725437 200.46304783 -12.74725437 200.12304783 C-13.07725437 201.44304783 -13.40725437 202.76304783 -13.74725437 204.12304783 C-13.08725437 204.12304783 -12.42725437 204.12304783 -11.74725437 204.12304783 C-12.07725437 205.77304783 -12.40725437 207.42304783 -12.74725437 209.12304783 C-13.07725437 208.13304783 -13.40725437 207.14304783 -13.74725437 206.12304783 C-14.73725437 205.79304783 -15.72725437 205.46304783 -16.74725437 205.12304783 C-17.07725437 202.48304783 -17.40725437 199.84304783 -17.74725437 197.12304783 C-18.73725437 196.79304783 -19.72725437 196.46304783 -20.74725437 196.12304783 C-20.74725437 195.46304783 -20.74725437 194.80304783 -20.74725437 194.12304783 C-21.40725437 194.12304783 -22.06725437 194.12304783 -22.74725437 194.12304783 C-22.41725437 195.44304783 -22.08725437 196.76304783 -21.74725437 198.12304783 C-23.06725437 198.45304783 -24.38725437 198.78304783 -25.74725437 199.12304783 C-25.74725437 198.46304783 -25.74725437 197.80304783 -25.74725437 197.12304783 C-28.05725437 197.45304783 -30.36725437 197.78304783 -32.74725437 198.12304783 C-33.80975437 196.31054783 -33.80975437 196.31054783 -34.74725437 194.12304783 C-33.74725437 191.12304783 -33.74725437 191.12304783 -31.87225437 190.06054783 C-31.17100437 189.75117283 -30.46975437 189.44179783 -29.74725437 189.12304783 C-28.75725437 188.46304783 -27.76725437 187.80304783 -26.74725437 187.12304783 C-26.08725437 187.12304783 -25.42725437 187.12304783 -24.74725437 187.12304783 C-24.41725437 186.13304783 -24.08725437 185.14304783 -23.74725437 184.12304783 C-23.08725437 184.12304783 -22.42725437 184.12304783 -21.74725437 184.12304783 C-23.5805877 180.95638116 -23.5805877 180.95638116 -26.74725437 179.12304783 C-27.40725437 179.12304783 -28.06725437 179.12304783 -28.74725437 179.12304783 C-28.74725437 178.46304783 -28.74725437 177.80304783 -28.74725437 177.12304783 C-32.36698839 175.80678091 -34.84292568 175.12304783 -38.74725437 175.12304783 C-40.87225437 174.93554783 -40.87225437 174.93554783 -42.74725437 174.12304783 C-43.41392104 172.45638116 -44.0805877 170.7897145 -44.74725437 169.12304783 C-46.78831077 168.23611479 -46.78831077 168.23611479 -48.74725437 168.12304783 C-48.54100437 168.86554783 -48.33475437 169.60804783 -48.12225437 170.37304783 C-47.70316686 173.44635624 -48.12776427 174.55091648 -49.74725437 177.12304783 C-50.73725437 177.12304783 -51.72725437 177.12304783 -52.74725437 177.12304783 C-53.03600437 177.98929783 -53.32475437 178.85554783 -53.62225437 179.74804783 C-54.66392104 182.87304783 -55.7055877 185.99804783 -56.74725437 189.12304783 C-56.08725437 188.46304783 -55.42725437 187.80304783 -54.74725437 187.12304783 C-53.75725437 187.12304783 -52.76725437 187.12304783 -51.74725437 187.12304783 C-51.74725437 187.78304783 -51.74725437 188.44304783 -51.74725437 189.12304783 C-50.09725437 189.12304783 -48.44725437 189.12304783 -46.74725437 189.12304783 C-46.74725437 190.44304783 -46.74725437 191.76304783 -46.74725437 193.12304783 C-47.73725437 193.12304783 -48.72725437 193.12304783 -49.74725437 193.12304783 C-50.07725437 194.11304783 -50.40725437 195.10304783 -50.74725437 196.12304783 C-52.06725437 196.12304783 -53.38725437 196.12304783 -54.74725437 196.12304783 C-55.07725437 195.46304783 -55.40725437 194.80304783 -55.74725437 194.12304783 C-56.18037937 194.61804783 -56.61350437 195.11304783 -57.05975437 195.62304783 C-58.74725437 197.12304783 -58.74725437 197.12304783 -61.74725437 197.12304783 C-62.07725437 198.11304783 -62.40725437 199.10304783 -62.74725437 200.12304783 C-64.39725437 199.79304783 -66.04725437 199.46304783 -67.74725437 199.12304783 C-67.85037937 198.48367283 -67.95350437 197.84429783 -68.05975437 197.18554783 C-68.28662937 196.50492283 -68.51350437 195.82429783 -68.74725437 195.12304783 C-69.73725437 194.79304783 -70.72725437 194.46304783 -71.74725437 194.12304783 C-71.41725437 192.47304783 -71.08725437 190.82304783 -70.74725437 189.12304783 C-71.73725437 189.12304783 -72.72725437 189.12304783 -73.74725437 189.12304783 C-73.74725437 188.13304783 -73.74725437 187.14304783 -73.74725437 186.12304783 C-74.40725437 185.79304783 -75.06725437 185.46304783 -75.74725437 185.12304783 C-77.37225437 183.87304783 -77.37225437 183.87304783 -78.74725437 182.12304783 C-78.93475437 179.43554783 -78.93475437 179.43554783 -78.74725437 177.12304783 C-79.46912937 177.30867283 -80.19100437 177.49429783 -80.93475437 177.68554783 C-83.91005764 178.14837278 -85.87937439 177.99934449 -88.74725437 177.12304783 C-89.07725437 176.46304783 -89.40725437 175.80304783 -89.74725437 175.12304783 C-89.08725437 174.79304783 -88.42725437 174.46304783 -87.74725437 174.12304783 C-87.40382988 172.79227794 -87.07105564 171.45872804 -86.74725437 170.12304783 C-85.75725437 169.13304783 -85.75725437 169.13304783 -84.74725437 168.12304783 C-84.5803799 165.53950564 -84.5803799 165.53950564 -84.74725437 163.12304783 C-83.09725437 163.45304783 -81.44725437 163.78304783 -79.74725437 164.12304783 C-79.76787937 162.86492283 -79.78850437 161.60679783 -79.80975437 160.31054783 C-79.85611521 157.48253696 -79.66418398 155.87383667 -78.74725437 153.12304783 C-80.06725437 151.80304783 -81.38725437 150.48304783 -82.74725437 149.12304783 C-81.42725437 148.79304783 -80.10725437 148.46304783 -78.74725437 148.12304783 C-78.74725437 148.78304783 -78.74725437 149.44304783 -78.74725437 150.12304783 C-76.27225437 149.13304783 -76.27225437 149.13304783 -73.74725437 148.12304783 C-71.74725437 151.87304783 -71.74725437 151.87304783 -71.74725437 154.12304783 C-69.10725437 154.12304783 -66.46725437 154.12304783 -63.74725437 154.12304783 C-63.41725437 155.11304783 -63.08725437 156.10304783 -62.74725437 157.12304783 C-63.07725437 157.78304783 -63.40725437 158.44304783 -63.74725437 159.12304783 C-62.75725437 159.12304783 -61.76725437 159.12304783 -60.74725437 159.12304783 C-60.41725437 157.80304783 -60.08725437 156.48304783 -59.74725437 155.12304783 C-58.42725437 154.79304783 -57.10725437 154.46304783 -55.74725437 154.12304783 C-55.74725437 154.78304783 -55.74725437 155.44304783 -55.74725437 156.12304783 C-56.40725437 156.12304783 -57.06725437 156.12304783 -57.74725437 156.12304783 C-57.74725437 157.11304783 -57.74725437 158.10304783 -57.74725437 159.12304783 C-56.75725437 159.12304783 -55.76725437 159.12304783 -54.74725437 159.12304783 C-55.07725437 160.44304783 -55.40725437 161.76304783 -55.74725437 163.12304783 C-52.36908013 163.96759139 -50.07260194 164.23149702 -46.74725437 163.12304783 C-46.74725437 163.78304783 -46.74725437 164.44304783 -46.74725437 165.12304783 C-46.08725437 165.12304783 -45.42725437 165.12304783 -44.74725437 165.12304783 C-44.25225437 162.15304783 -44.25225437 162.15304783 -43.74725437 159.12304783 C-42.75725437 159.12304783 -41.76725437 159.12304783 -40.74725437 159.12304783 C-39.75725437 158.46304783 -38.76725437 157.80304783 -37.74725437 157.12304783 C-37.74725437 157.78304783 -37.74725437 158.44304783 -37.74725437 159.12304783 C-32.30225437 158.13304783 -32.30225437 158.13304783 -26.74725437 157.12304783 C-26.45850437 156.17429783 -26.16975437 155.22554783 -25.87225437 154.24804783 C-24.74725437 151.12304783 -24.74725437 151.12304783 -22.74725437 149.12304783 C-22.74725437 150.11304783 -22.74725437 151.10304783 -22.74725437 152.12304783 C-19.90301511 151.22486701 -18.15058648 150.64913319 -16.30975437 148.24804783 C-15.51150631 146.07553937 -15.51150631 146.07553937 -16.62225437 143.87304783 C-16.99350437 143.29554783 -17.36475437 142.71804783 -17.74725437 142.12304783 C-17.08725437 142.12304783 -16.42725437 142.12304783 -15.74725437 142.12304783 C-15.41725437 140.80304783 -15.08725437 139.48304783 -14.74725437 138.12304783 C-17.11004173 137.89316277 -17.11004173 137.89316277 -19.37225437 140.62304783 C-20.15600437 141.44804783 -20.93975437 142.27304783 -21.74725437 143.12304783 C-21.74725437 142.46304783 -21.74725437 141.80304783 -21.74725437 141.12304783 C-22.73725437 140.79304783 -23.72725437 140.46304783 -24.74725437 140.12304783 C-24.74725437 139.46304783 -24.74725437 138.80304783 -24.74725437 138.12304783 C-28.21225437 139.11304783 -28.21225437 139.11304783 -31.74725437 140.12304783 C-31.74725437 140.78304783 -31.74725437 141.44304783 -31.74725437 142.12304783 C-32.40725437 142.12304783 -33.06725437 142.12304783 -33.74725437 142.12304783 C-34.07725437 143.11304783 -34.40725437 144.10304783 -34.74725437 145.12304783 C-35.40725437 144.79304783 -36.06725437 144.46304783 -36.74725437 144.12304783 C-36.74725437 142.80304783 -36.74725437 141.48304783 -36.74725437 140.12304783 C-37.40725437 139.79304783 -38.06725437 139.46304783 -38.74725437 139.12304783 C-39.07725437 140.77304783 -39.40725437 142.42304783 -39.74725437 144.12304783 C-40.83006687 144.09211033 -40.83006687 144.09211033 -41.93475437 144.06054783 C-44.66650575 144.12125341 -47.08981528 144.51563318 -49.74725437 145.12304783 C-49.74725437 144.46304783 -49.74725437 143.80304783 -49.74725437 143.12304783 C-50.70631687 142.75179783 -50.70631687 142.75179783 -51.68475437 142.37304783 C-53.74725437 141.12304783 -53.74725437 141.12304783 -54.68475437 139.18554783 C-54.74725437 137.12304783 -54.74725437 137.12304783 -53.30975437 135.37304783 C-52.53631687 134.75429783 -52.53631687 134.75429783 -51.74725437 134.12304783 C-50.75725437 135.11304783 -49.76725437 136.10304783 -48.74725437 137.12304783 C-47.75725437 136.79304783 -46.76725437 136.46304783 -45.74725437 136.12304783 C-44.75725437 136.78304783 -43.76725437 137.44304783 -42.74725437 138.12304783 C-42.08725437 136.80304783 -41.42725437 135.48304783 -40.74725437 134.12304783 C-40.41725437 134.45304783 -40.08725437 134.78304783 -39.74725437 135.12304783 C-39.41725437 134.46304783 -39.08725437 133.80304783 -38.74725437 133.12304783 C-37.75725437 133.12304783 -36.76725437 133.12304783 -35.74725437 133.12304783 C-35.08725437 132.13304783 -34.42725437 131.14304783 -33.74725437 130.12304783 C-30.62225437 129.93554783 -30.62225437 129.93554783 -27.74725437 130.12304783 C-27.74725437 129.13304783 -27.74725437 128.14304783 -27.74725437 127.12304783 C-23.99725437 125.99804783 -23.99725437 125.99804783 -21.74725437 127.12304783 C-21.74725437 127.78304783 -21.74725437 128.44304783 -21.74725437 129.12304783 C-22.40725437 129.12304783 -23.06725437 129.12304783 -23.74725437 129.12304783 C-23.08725437 129.78304783 -22.42725437 130.44304783 -21.74725437 131.12304783 C-21.08725437 131.12304783 -20.42725437 131.12304783 -19.74725437 131.12304783 C-19.41725437 130.13304783 -19.08725437 129.14304783 -18.74725437 128.12304783 C-16.43725437 128.45304783 -14.12725437 128.78304783 -11.74725437 129.12304783 C-10.62225437 132.87304783 -10.62225437 132.87304783 -11.74725437 135.12304783 C-10.75725437 135.12304783 -9.76725437 135.12304783 -8.74725437 135.12304783 C-8.62350437 134.50429783 -8.49975437 133.88554783 -8.37225437 133.24804783 C-7.74725437 131.12304783 -7.74725437 131.12304783 -5.74725437 129.12304783 C-3.82314842 126.02309935 -3.54599834 123.74565634 -3.74725437 120.12304783 C-5.23225437 119.62804783 -5.23225437 119.62804783 -6.74725437 119.12304783 C-5.74725437 117.12304783 -5.74725437 117.12304783 -3.74725437 116.12304783 C-3.41725437 109.52304783 -3.08725437 102.92304783 -2.74725437 96.12304783 C-3.73725437 96.12304783 -4.72725437 96.12304783 -5.74725437 96.12304783 C-5.25225437 94.63804783 -5.25225437 94.63804783 -4.74725437 93.12304783 C-4.08725437 93.12304783 -3.42725437 93.12304783 -2.74725437 93.12304783 C-2.83104343 92.08406345 -2.9148325 91.04507908 -3.00116062 89.97461033 C-4.02338359 76.33350349 -4.02338359 76.33350349 -2.90350437 69.62695408 C-2.65348829 66.89621758 -2.65348829 66.89621758 -3.24285984 63.29858494 C-3.95344421 57.13232347 -3.78500843 51.00711429 -3.66131687 44.81054783 C-3.64007755 43.56047947 -3.61883823 42.31041111 -3.5969553 41.02246189 C-3.53918717 37.72831354 -3.47590212 34.43432712 -3.41064548 31.14032078 C-3.35922589 28.43846206 -3.31579524 25.73649793 -3.27234936 23.03450108 C-3.21939319 19.81392626 -3.15883093 16.59349771 -3.09881687 13.37304783 C-3.07896732 12.15963718 -3.05911777 10.94622654 -3.03866673 9.69604588 C-3.00390736 8.02795872 -3.00390736 8.02795872 -2.96844578 6.32617283 C-2.94988529 5.34294041 -2.93132481 4.35970798 -2.91220188 3.34668064 C-2.71436445 0.67966373 -2.67790112 0.18858726 0 0 Z M-61.74725437 162.12304783 C-61.41725437 162.78304783 -61.08725437 163.44304783 -60.74725437 164.12304783 C-60.41725437 163.46304783 -60.08725437 162.80304783 -59.74725437 162.12304783 C-60.40725437 162.12304783 -61.06725437 162.12304783 -61.74725437 162.12304783 Z M-32.74725437 173.12304783 C-31.74725437 175.12304783 -31.74725437 175.12304783 -31.74725437 175.12304783 Z M-12.74725437 124.12304783 C-11.75725437 124.61804783 -11.75725437 124.61804783 -10.74725437 125.12304783 C-11.73725437 125.61804783 -11.73725437 125.61804783 -12.74725437 126.12304783 C-12.74725437 125.46304783 -12.74725437 124.80304783 -12.74725437 124.12304783 Z M-13.74725437 126.12304783 C-13.41725437 126.78304783 -13.08725437 127.44304783 -12.74725437 128.12304783 C-13.40725437 127.79304783 -14.06725437 127.46304783 -14.74725437 127.12304783 C-14.41725437 126.79304783 -14.08725437 126.46304783 -13.74725437 126.12304783 Z M-26.74725437 199.12304783 C-26.41725437 199.12304783 -26.08725437 199.12304783 -25.74725437 199.12304783 C-25.74725437 200.77304783 -25.74725437 202.42304783 -25.74725437 204.12304783 C-26.07725437 204.12304783 -26.40725437 204.12304783 -26.74725437 204.12304783 C-26.74725437 202.47304783 -26.74725437 200.82304783 -26.74725437 199.12304783 Z " fill="#4C127A" transform="translate(177.74725437164307,98.87695217132568)"/>
<path d="M0 0 C0.76600997 0.00092179 1.53201994 0.00184359 2.32124233 0.00279331 C3.19768902 0.00141865 4.0741357 0.00004398 4.97714138 -0.00137234 C6.43046368 0.00402058 6.43046368 0.00402058 7.91314602 0.00952244 C8.92766338 0.00937641 9.94218075 0.00923038 10.98744106 0.00907993 C14.35844936 0.00977954 17.72940317 0.01757414 21.10040188 0.02539158 C23.43067806 0.02725559 25.76095463 0.02867957 28.09123135 0.0296793 C34.23811828 0.03350581 40.38498176 0.04333723 46.5318594 0.05438328 C52.79884429 0.06459454 59.06583295 0.06917631 65.33282375 0.0742197 C77.63947471 0.08495938 89.94610822 0.10203739 102.25274563 0.12304783 C102.25274563 0.45304783 102.25274563 0.78304783 102.25274563 1.12304783 C68.26274563 1.12304783 34.27274563 1.12304783 -0.74725437 1.12304783 C-0.72985203 17.7152158 -0.72985203 17.7152158 -0.71209812 34.64257908 C-0.70698773 41.65625119 -0.70213226 48.66992194 -0.69842625 55.6835947 C-0.69249848 66.81242427 -0.68553935 77.94124626 -0.67181492 89.07006931 C-0.66182317 97.17603505 -0.65539027 105.28199461 -0.65316588 113.38796633 C-0.65186639 117.67686838 -0.64882894 121.96575279 -0.64152431 126.25464916 C-0.63469315 130.29865249 -0.63265174 134.34263105 -0.63414669 138.3866396 C-0.63387353 139.86396069 -0.63191078 141.34128268 -0.6280489 142.81859875 C-0.58200218 161.3560386 -0.58200218 161.3560386 -2.27806091 169.75008965 C-2.77476523 172.26218472 -2.82022697 174.56900674 -2.74725437 177.12304783 C-5.05725437 176.13304783 -7.36725437 175.14304783 -9.74725437 174.12304783 C-10.07725437 174.78304783 -10.40725437 175.44304783 -10.74725437 176.12304783 C-10.74725437 175.13304783 -10.74725437 174.14304783 -10.74725437 173.12304783 C-11.51037937 172.83429783 -12.27350437 172.54554783 -13.05975437 172.24804783 C-15.74725437 171.12304783 -15.74725437 171.12304783 -18.74725437 169.12304783 C-18.74725437 168.46304783 -18.74725437 167.80304783 -18.74725437 167.12304783 C-19.26287937 167.30867283 -19.77850437 167.49429783 -20.30975437 167.68554783 C-23.60634176 168.277243 -26.46971172 167.69031483 -29.74725437 167.12304783 C-29.74725437 167.78304783 -29.74725437 168.44304783 -29.74725437 169.12304783 C-30.40725437 169.12304783 -31.06725437 169.12304783 -31.74725437 169.12304783 C-31.74725437 168.46304783 -31.74725437 167.80304783 -31.74725437 167.12304783 C-32.40725437 166.46304783 -33.06725437 165.80304783 -33.74725437 165.12304783 C-32.97381687 164.50429783 -32.97381687 164.50429783 -32.18475437 163.87304783 C-31.71037937 163.29554783 -31.23600437 162.71804783 -30.74725437 162.12304783 C-30.97483168 159.96005572 -30.97483168 159.96005572 -31.74725437 158.12304783 C-30.09725437 157.79304783 -28.44725437 157.46304783 -26.74725437 157.12304783 C-26.45850437 156.17429783 -26.16975437 155.22554783 -25.87225437 154.24804783 C-24.74725437 151.12304783 -24.74725437 151.12304783 -22.74725437 149.12304783 C-22.74725437 150.11304783 -22.74725437 151.10304783 -22.74725437 152.12304783 C-19.90301511 151.22486701 -18.15058648 150.64913319 -16.30975437 148.24804783 C-15.51150631 146.07553937 -15.51150631 146.07553937 -16.62225437 143.87304783 C-16.99350437 143.29554783 -17.36475437 142.71804783 -17.74725437 142.12304783 C-17.08725437 142.12304783 -16.42725437 142.12304783 -15.74725437 142.12304783 C-15.41725437 140.80304783 -15.08725437 139.48304783 -14.74725437 138.12304783 C-17.11004173 137.89316277 -17.11004173 137.89316277 -19.37225437 140.62304783 C-20.15600437 141.44804783 -20.93975437 142.27304783 -21.74725437 143.12304783 C-21.74725437 142.46304783 -21.74725437 141.80304783 -21.74725437 141.12304783 C-22.73725437 140.79304783 -23.72725437 140.46304783 -24.74725437 140.12304783 C-24.74725437 139.46304783 -24.74725437 138.80304783 -24.74725437 138.12304783 C-28.21225437 139.11304783 -28.21225437 139.11304783 -31.74725437 140.12304783 C-31.74725437 140.78304783 -31.74725437 141.44304783 -31.74725437 142.12304783 C-32.40725437 142.12304783 -33.06725437 142.12304783 -33.74725437 142.12304783 C-34.07725437 143.11304783 -34.40725437 144.10304783 -34.74725437 145.12304783 C-35.40725437 144.79304783 -36.06725437 144.46304783 -36.74725437 144.12304783 C-36.74725437 142.80304783 -36.74725437 141.48304783 -36.74725437 140.12304783 C-37.40725437 139.79304783 -38.06725437 139.46304783 -38.74725437 139.12304783 C-39.07725437 140.77304783 -39.40725437 142.42304783 -39.74725437 144.12304783 C-40.46912937 144.10242283 -41.19100437 144.08179783 -41.93475437 144.06054783 C-44.66650575 144.12125341 -47.08981528 144.51563318 -49.74725437 145.12304783 C-49.74725437 144.46304783 -49.74725437 143.80304783 -49.74725437 143.12304783 C-50.70631687 142.75179783 -50.70631687 142.75179783 -51.68475437 142.37304783 C-53.74725437 141.12304783 -53.74725437 141.12304783 -54.68475437 139.18554783 C-54.74725437 137.12304783 -54.74725437 137.12304783 -53.30975437 135.37304783 C-52.53631687 134.75429783 -52.53631687 134.75429783 -51.74725437 134.12304783 C-50.75725437 135.11304783 -49.76725437 136.10304783 -48.74725437 137.12304783 C-47.75725437 136.79304783 -46.76725437 136.46304783 -45.74725437 136.12304783 C-44.75725437 136.78304783 -43.76725437 137.44304783 -42.74725437 138.12304783 C-41.75725437 136.14304783 -41.75725437 136.14304783 -40.74725437 134.12304783 C-40.41725437 134.45304783 -40.08725437 134.78304783 -39.74725437 135.12304783 C-39.25225437 134.13304783 -39.25225437 134.13304783 -38.74725437 133.12304783 C-37.75725437 133.12304783 -36.76725437 133.12304783 -35.74725437 133.12304783 C-35.08725437 132.13304783 -34.42725437 131.14304783 -33.74725437 130.12304783 C-30.62225437 129.93554783 -30.62225437 129.93554783 -27.74725437 130.12304783 C-27.74725437 129.13304783 -27.74725437 128.14304783 -27.74725437 127.12304783 C-23.99725437 125.99804783 -23.99725437 125.99804783 -21.74725437 127.12304783 C-21.74725437 127.78304783 -21.74725437 128.44304783 -21.74725437 129.12304783 C-22.40725437 129.12304783 -23.06725437 129.12304783 -23.74725437 129.12304783 C-23.08725437 129.78304783 -22.42725437 130.44304783 -21.74725437 131.12304783 C-21.08725437 131.12304783 -20.42725437 131.12304783 -19.74725437 131.12304783 C-19.41725437 130.13304783 -19.08725437 129.14304783 -18.74725437 128.12304783 C-16.43725437 128.45304783 -14.12725437 128.78304783 -11.74725437 129.12304783 C-10.62225437 132.87304783 -10.62225437 132.87304783 -11.74725437 135.12304783 C-10.75725437 135.12304783 -9.76725437 135.12304783 -8.74725437 135.12304783 C-8.62350437 134.50429783 -8.49975437 133.88554783 -8.37225437 133.24804783 C-7.74725437 131.12304783 -7.74725437 131.12304783 -5.74725437 129.12304783 C-3.82314842 126.02309935 -3.54599834 123.74565634 -3.74725437 120.12304783 C-4.73725437 119.79304783 -5.72725437 119.46304783 -6.74725437 119.12304783 C-5.74725437 117.12304783 -5.74725437 117.12304783 -3.74725437 116.12304783 C-3.41725437 109.52304783 -3.08725437 102.92304783 -2.74725437 96.12304783 C-3.73725437 96.12304783 -4.72725437 96.12304783 -5.74725437 96.12304783 C-5.25225437 94.63804783 -5.25225437 94.63804783 -4.74725437 93.12304783 C-4.08725437 93.12304783 -3.42725437 93.12304783 -2.74725437 93.12304783 C-2.83104343 92.08406345 -2.9148325 91.04507908 -3.00116062 89.97461033 C-4.02338359 76.33350349 -4.02338359 76.33350349 -2.90350437 69.62695408 C-2.65348829 66.89621758 -2.65348829 66.89621758 -3.24285984 63.29858494 C-3.95344421 57.13232347 -3.78500843 51.00711429 -3.66131687 44.81054783 C-3.64007755 43.56047947 -3.61883823 42.31041111 -3.5969553 41.02246189 C-3.53918717 37.72831354 -3.47590212 34.43432712 -3.41064548 31.14032078 C-3.35922589 28.43846206 -3.31579524 25.73649793 -3.27234936 23.03450108 C-3.21939319 19.81392626 -3.15883093 16.59349771 -3.09881687 13.37304783 C-3.07896732 12.15963718 -3.05911777 10.94622654 -3.03866673 9.69604588 C-3.01549381 8.58398777 -2.9923209 7.47192966 -2.96844578 6.32617283 C-2.94988529 5.34294041 -2.93132481 4.35970798 -2.91220188 3.34668064 C-2.71436445 0.67966373 -2.67790112 0.18858726 0 0 Z M-12.74725437 124.12304783 C-11.75725437 124.61804783 -11.75725437 124.61804783 -10.74725437 125.12304783 C-11.73725437 125.61804783 -11.73725437 125.61804783 -12.74725437 126.12304783 C-12.74725437 125.46304783 -12.74725437 124.80304783 -12.74725437 124.12304783 Z M-13.74725437 126.12304783 C-13.41725437 126.78304783 -13.08725437 127.44304783 -12.74725437 128.12304783 C-13.40725437 127.79304783 -14.06725437 127.46304783 -14.74725437 127.12304783 C-14.41725437 126.79304783 -14.08725437 126.46304783 -13.74725437 126.12304783 Z " fill="#33107B" transform="translate(177.74725437164307,98.87695217132568)"/>
<path d="M0 0 C0.66 0.33 1.32 0.66 2 1 C4.46082547 8.51918893 5.18281631 17.35141164 3 25 C3.66 25.33 4.32 25.66 5 26 C4.34 26 3.68 26 3 26 C3.33 26.61875 3.66 27.2375 4 27.875 C5 30 5 30 5 32 C5.99 32.33 6.98 32.66 8 33 C7.67 31.35 7.34 29.7 7 28 C7.66 28 8.32 28 9 28 C9 27.34 9 26.68 9 26 C9.66 26 10.32 26 11 26 C11.2475 25.195625 11.495 24.39125 11.75 23.5625 C13 21 13 21 14.875 20 C17.74470549 20 18.90463451 21.12913796 21 23 C17.67692308 28.78461538 17.67692308 28.78461538 14.25 29.875 C13.5075 29.91625 12.765 29.9575 12 30 C12 31.32 12 32.64 12 34 C14.65228812 35.07525194 17.28368454 36.09456151 20 37 C20 37.66 20 38.32 20 39 C21.98 38.34 23.96 37.68 26 37 C26 37.66 26 38.32 26 39 C26.99 39.495 26.99 39.495 28 40 C28.66 40.66 29.32 41.32 30 42 C30.99 42 31.98 42 33 42 C35 43 35 43 37 46 C37.93519355 48.89910002 38 50.84586503 38 54 C37.34 54 36.68 54 36 54 C36.495 54.928125 36.99 55.85625 37.5 56.8125 C39 60 39 60 39 63 C40.4540625 63.680625 40.4540625 63.680625 41.9375 64.375 C45 66 45 66 46 68 C45.67 68.66 45.34 69.32 45 70 C46.98 69.505 46.98 69.505 49 69 C48.505 70.485 48.505 70.485 48 72 C45.03 72.495 45.03 72.495 42 73 C42 74.98 42 76.96 42 79 C41.34 79 40.68 79 40 79 C39.67 79.66 39.34 80.32 39 81 C36.03 80.505 36.03 80.505 33 80 C32.34 77.69 31.68 75.38 31 73 C31.99 72.67 32.98 72.34 34 72 C34.08121924 70.39667209 34.13929134 68.79215974 34.1875 67.1875 C34.22230469 66.29417969 34.25710938 65.40085937 34.29296875 64.48046875 C33.9431769 61.51889779 33.13153011 60.95250396 31 59 C31 58.01 31 57.02 31 56 C30.05125 55.938125 29.1025 55.87625 28.125 55.8125 C27.09375 55.544375 26.0625 55.27625 25 55 C23.875 52.5 23.875 52.5 23 50 C21.05396726 49.40929986 21.05396726 49.40929986 19 49 C18.54625 48.34 18.0925 47.68 17.625 47 C16.10493964 44.74052035 16.10493964 44.74052035 13.1875 44.1875 C9.93393262 43.99611368 7.1787187 44.31884599 4 45 C4.33 46.65 4.66 48.3 5 50 C5.66 50 6.32 50 7 50 C6.67 51.32 6.34 52.64 6 54 C2.15870308 49.17375515 0.37742233 46.16456476 0 40 C0.66 40 1.32 40 2 40 C2 39.34 2 38.68 2 38 C3.32 38 4.64 38 6 38 C3.34080445 33.20302477 3.34080445 33.20302477 0.25 28.6875 C-1 27 -1 27 -1 25 C-0.34 25 0.32 25 1 25 C0.67 24.34 0.34 23.68 0 23 C-0.04022391 20.6670134 -0.04320247 18.33293334 0 16 C-1.98 17.65 -3.96 19.3 -6 21 C-5.67 19.35 -5.34 17.7 -5 16 C-4.01 15.67 -3.02 15.34 -2 15 C-1.8007711 9.77282434 -1.8007711 9.77282434 -2.6875 4.6875 C-2.790625 4.130625 -2.89375 3.57375 -3 3 C-1.5625 1.25 -1.5625 1.25 0 0 Z " fill="#2A1D8E" transform="translate(302,150)"/>
<path d="M0 0 C0.33 0 0.66 0 1 0 C1.04630932 9.2054213 1.08186203 18.41080259 1.10362434 27.61631489 C1.11406835 31.89065473 1.12823877 36.16491496 1.15087891 40.43920898 C1.17258534 44.56296256 1.18456398 48.68663949 1.18975449 52.81044579 C1.1934542 54.38494257 1.2006787 55.95943509 1.21146011 57.53389931 C1.22594594 59.73664084 1.22797918 61.93906432 1.22705078 64.1418457 C1.231492 65.39649124 1.23593323 66.65113678 1.24050903 67.94380188 C1 71 1 71 -1 74 C-1.03738281 72.95199219 -1.07476562 71.90398437 -1.11328125 70.82421875 C-1.17894515 69.44527695 -1.24539235 68.06637229 -1.3125 66.6875 C-1.33505859 65.99720703 -1.35761719 65.30691406 -1.38085938 64.59570312 C-1.58045174 60.57108549 -1.58045174 60.57108549 -3.41796875 57.08203125 C-5.02189118 55.93246915 -5.02189118 55.93246915 -7 55 C-6.505 54.608125 -6.01 54.21625 -5.5 53.8125 C-3.54406857 51.44908285 -3.75792027 49.98564997 -4 47 C-5.485 46.505 -5.485 46.505 -7 46 C-6.34 45.01 -5.68 44.02 -5 43 C-6.32 43 -7.64 43 -9 43 C-9.33 43.66 -9.66 44.32 -10 45 C-10.495 44.505 -10.495 44.505 -11 44 C-11.33 45.32 -11.66 46.64 -12 48 C-11.34 48 -10.68 48 -10 48 C-10.33 49.65 -10.66 51.3 -11 53 C-11.33 52.01 -11.66 51.02 -12 50 C-13.485 49.505 -13.485 49.505 -15 49 C-15.33 46.36 -15.66 43.72 -16 41 C-17.485 40.505 -17.485 40.505 -19 40 C-19 39.34 -19 38.68 -19 38 C-19.66 38 -20.32 38 -21 38 C-20.67 39.32 -20.34 40.64 -20 42 C-21.98 42.495 -21.98 42.495 -24 43 C-24 42.34 -24 41.68 -24 41 C-27.465 41.495 -27.465 41.495 -31 42 C-32.0625 40.1875 -32.0625 40.1875 -33 38 C-32 35 -32 35 -30.125 33.9375 C-29.42375 33.628125 -28.7225 33.31875 -28 33 C-27.01 32.34 -26.02 31.68 -25 31 C-24.34 31 -23.68 31 -23 31 C-22.67 30.01 -22.34 29.02 -22 28 C-21.34 28 -20.68 28 -20 28 C-20.33 23.71 -20.66 19.42 -21 15 C-21.33 15.33 -21.66 15.66 -22 16 C-22.66 15.34 -23.32 14.68 -24 14 C-23.67 13.01 -23.34 12.02 -23 11 C-21.02 11 -19.04 11 -17 11 C-17 11.66 -17 12.32 -17 13 C-16.443125 13.268125 -15.88625 13.53625 -15.3125 13.8125 C-13 15 -13 15 -10.625 16.5 C-7.82157221 18.10195874 -5.0838268 19.06768027 -2 20 C-2.020625 18.700625 -2.04125 17.40125 -2.0625 16.0625 C-2.08399454 14.70834367 -2.07148199 13.35243917 -2 12 C-1.67 11.67 -1.34 11.34 -1 11 C-0.76636119 9.15108054 -0.58696365 7.29511969 -0.4375 5.4375 C-0.35371094 4.42558594 -0.26992187 3.41367187 -0.18359375 2.37109375 C-0.09271484 1.19740234 -0.09271484 1.19740234 0 0 Z M-25 43 C-24.67 43 -24.34 43 -24 43 C-24 44.65 -24 46.3 -24 48 C-24.33 48 -24.66 48 -25 48 C-25 46.35 -25 44.7 -25 43 Z " fill="#412383" transform="translate(176,255)"/>
<path d="M0 0 C0.66 0.33 1.32 0.66 2 1 C0.79979936 4.0862302 -0.52019472 7.04038944 -2 10 C-2.33 10.99 -2.66 11.98 -3 13 C-1.35 12.34 0.3 11.68 2 11 C3.5625 13.375 3.5625 13.375 5 16 C4.67 16.66 4.34 17.32 4 18 C3.34 18 2.68 18 2 18 C2.5259375 19.051875 2.5259375 19.051875 3.0625 20.125 C4.18229623 23.55904177 3.81551467 25.51552821 3 29 C2.9071875 30.0828125 2.9071875 30.0828125 2.8125 31.1875 C2 33 2 33 -0.6875 34.25 C-6.049033 37.082508 -8.69576556 42.04364834 -12 47 C-14 49 -14 49 -17.25 49.3125 C-18.1575 49.209375 -19.065 49.10625 -20 49 C-18.25 43.25 -18.25 43.25 -16 41 C-14.68 41 -13.36 41 -12 41 C-12 40.34 -12 39.68 -12 39 C-12.66 39 -13.32 39 -14 39 C-15.38087404 35.16423878 -14.94284862 31.91644812 -14 28 C-11.9375 26.5625 -11.9375 26.5625 -10 26 C-10 25.01 -10 24.02 -10 23 C-10.66 23 -11.32 23 -12 23 C-12 23.99 -12 24.98 -12 26 C-15.33333333 29 -15.33333333 29 -18 29 C-18.33 28.01 -18.66 27.02 -19 26 C-18.01 25.67 -17.02 25.34 -16 25 C-15.67 23.35 -15.34 21.7 -15 20 C-14.34 20 -13.68 20 -13 20 C-13.33 18.35 -13.66 16.7 -14 15 C-13.01 15 -12.02 15 -11 15 C-10.34 14.01 -9.68 13.02 -9 12 C-8.01904252 10.98131338 -7.02297922 9.97648017 -6 9 C-6.33 8.34 -6.66 7.68 -7 7 C-7.039992 5.00039988 -7.04346799 2.99952758 -7 1 C-6.67 1.66 -6.34 2.32 -6 3 C-4.576875 2.2265625 -4.576875 2.2265625 -3.125 1.4375 C-2.09375 0.963125 -1.0625 0.48875 0 0 Z M-21 30 C-19 31 -19 31 -19 31 Z " fill="#0B337B" transform="translate(355,224)"/>
<path d="M0 0 C0.99 0.495 0.99 0.495 2 1 C1.01 1.495 1.01 1.495 0 2 C0 1.34 0 0.68 0 0 Z M-1 2 C-0.67 2.66 -0.34 3.32 0 4 C-0.66 3.67 -1.32 3.34 -2 3 C-1.67 2.67 -1.34 2.34 -1 2 Z M9 1 C9.33 1 9.66 1 10 1 C10 4.96 10 8.92 10 13 C9.34 13 8.68 13 8 13 C8 13.66 8 14.32 8 15 C8.66 15 9.32 15 10 15 C10 17.31 10 19.62 10 22 C8.68 21.34 7.36 20.68 6 20 C5.34 20.66 4.68 21.32 4 22 C3.01 21.67 2.02 21.34 1 21 C-1.14255793 21.38932856 -1.14255793 21.38932856 -3 22 C-3.66 20.68 -4.32 19.36 -5 18 C-4.34 18 -3.68 18 -3 18 C-2.67 16.68 -2.34 15.36 -2 14 C-4.36278736 13.77011494 -4.36278736 13.77011494 -6.625 16.5 C-7.40875 17.325 -8.1925 18.15 -9 19 C-9 18.34 -9 17.68 -9 17 C-9.99 16.67 -10.98 16.34 -12 16 C-12 15.34 -12 14.68 -12 14 C-14.31 14.66 -16.62 15.32 -19 16 C-19 16.66 -19 17.32 -19 18 C-19.66 18 -20.32 18 -21 18 C-21.33 18.99 -21.66 19.98 -22 21 C-22.66 20.67 -23.32 20.34 -24 20 C-24 18.68 -24 17.36 -24 16 C-24.66 15.67 -25.32 15.34 -26 15 C-26.33 16.65 -26.66 18.3 -27 20 C-27.721875 19.979375 -28.44375 19.95875 -29.1875 19.9375 C-31.91925138 19.99820559 -34.34256091 20.39258535 -37 21 C-37 20.34 -37 19.68 -37 19 C-37.639375 18.7525 -38.27875 18.505 -38.9375 18.25 C-41 17 -41 17 -41.9375 15.0625 C-42 13 -42 13 -40.5625 11.25 C-40.046875 10.8375 -39.53125 10.425 -39 10 C-38.01 10.99 -37.02 11.98 -36 13 C-35.01 12.67 -34.02 12.34 -33 12 C-32.01 12.66 -31.02 13.32 -30 14 C-29.34 12.68 -28.68 11.36 -28 10 C-27.67 10.33 -27.34 10.66 -27 11 C-26.67 10.34 -26.34 9.68 -26 9 C-25.01 9 -24.02 9 -23 9 C-22.34 8.01 -21.68 7.02 -21 6 C-17.875 5.8125 -17.875 5.8125 -15 6 C-15 5.01 -15 4.02 -15 3 C-11.25 1.875 -11.25 1.875 -9 3 C-9 3.66 -9 4.32 -9 5 C-9.66 5 -10.32 5 -11 5 C-10.34 5.66 -9.68 6.32 -9 7 C-8.34 7 -7.68 7 -7 7 C-6.67 6.01 -6.34 5.02 -6 4 C-3.69 4.33 -1.38 4.66 1 5 C2.125 8.75 2.125 8.75 1 11 C1.99 11 2.98 11 4 11 C4.185625 10.071875 4.185625 10.071875 4.375 9.125 C5 7 5 7 7 5 C7.69748583 3.68252676 8.36959957 2.35085807 9 1 Z " fill="#580F86" transform="translate(165,223)"/>
<path d="M0 0 C0.99 0 1.98 0 3 0 C2.49396008 2.16874252 2.00016187 3.99967627 1 6 C1.66 6 2.32 6 3 6 C3.66 4.68 4.32 3.36 5 2 C5.99 2.66 6.98 3.32 8 4 C7.67 4.66 7.34 5.32 7 6 C7.66 6 8.32 6 9 6 C7.66666667 10 6.33333333 14 5 18 C5.66 17.34 6.32 16.68 7 16 C7.99 16 8.98 16 10 16 C10 16.66 10 17.32 10 18 C11.65 18 13.3 18 15 18 C15 19.32 15 20.64 15 22 C14.01 22 13.02 22 12 22 C11.67 22.99 11.34 23.98 11 25 C9.68 25 8.36 25 7 25 C6.67 24.34 6.34 23.68 6 23 C5.566875 23.495 5.13375 23.99 4.6875 24.5 C3 26 3 26 0 26 C-0.33 26.99 -0.66 27.98 -1 29 C-2.65 28.67 -4.3 28.34 -6 28 C-6.1546875 27.0409375 -6.1546875 27.0409375 -6.3125 26.0625 C-6.539375 25.381875 -6.76625 24.70125 -7 24 C-7.99 23.67 -8.98 23.34 -10 23 C-9.67 21.35 -9.34 19.7 -9 18 C-9.99 18 -10.98 18 -12 18 C-12 17.01 -12 16.02 -12 15 C-12.66 14.67 -13.32 14.34 -14 14 C-15.6875 12.6875 -15.6875 12.6875 -17 11 C-16.6875 8.8125 -16.6875 8.8125 -16 7 C-13.01758453 6.22678118 -10.02419525 5.58803797 -7 5 C-6.67 4.01 -6.34 3.02 -6 2 C-4.68 2.33 -3.36 2.66 -2 3 C-1.34 2.01 -0.68 1.02 0 0 Z M9 4 C9.66 4 10.32 4 11 4 C11 4.66 11 5.32 11 6 C10.34 6 9.68 6 9 6 C9 5.34 9 4.68 9 4 Z " fill="#40117E" transform="translate(116,270)"/>
<path d="M0 0 C0.33 0 0.66 0 1 0 C1.04630932 9.2054213 1.08186203 18.41080259 1.10362434 27.61631489 C1.11406835 31.89065473 1.12823877 36.16491496 1.15087891 40.43920898 C1.17258534 44.56296256 1.18456398 48.68663949 1.18975449 52.81044579 C1.1934542 54.38494257 1.2006787 55.95943509 1.21146011 57.53389931 C1.22594594 59.73664084 1.22797918 61.93906432 1.22705078 64.1418457 C1.231492 65.39649124 1.23593323 66.65113678 1.24050903 67.94380188 C1 71 1 71 -1 74 C-1.03738281 72.95199219 -1.07476562 71.90398437 -1.11328125 70.82421875 C-1.17894515 69.44527695 -1.24539235 68.06637229 -1.3125 66.6875 C-1.33505859 65.99720703 -1.35761719 65.30691406 -1.38085938 64.59570312 C-1.58045174 60.57108549 -1.58045174 60.57108549 -3.41796875 57.08203125 C-5.02189118 55.93246915 -5.02189118 55.93246915 -7 55 C-6.2575 54.4121875 -6.2575 54.4121875 -5.5 53.8125 C-3.54406857 51.44908285 -3.75792027 49.98564997 -4 47 C-4.99 46.67 -5.98 46.34 -7 46 C-6.34 45.01 -5.68 44.02 -5 43 C-5.66 42.67 -6.32 42.34 -7 42 C-6.2884375 41.319375 -6.2884375 41.319375 -5.5625 40.625 C-3.90972192 39.06741796 -3.90972192 39.06741796 -3 37 C-3.66 37 -4.32 37 -5 37 C-5.33 36.34 -5.66 35.68 -6 35 C-6.66 34.67 -7.32 34.34 -8 34 C-8 33.34 -8 32.68 -8 32 C-7.34 31.67 -6.68 31.34 -6 31 C-8.00014555 28.91601827 -8.00014555 28.91601827 -10.5 27.0625 C-13 25 -13 25 -15 22 C-14.625 18.3125 -14.625 18.3125 -14 15 C-13.13375 15.45375 -12.2675 15.9075 -11.375 16.375 C-8.28523093 17.86266659 -5.27069152 18.9876431 -2 20 C-2.020625 18.700625 -2.04125 17.40125 -2.0625 16.0625 C-2.08399454 14.70834367 -2.07148199 13.35243917 -2 12 C-1.67 11.67 -1.34 11.34 -1 11 C-0.76636119 9.15108054 -0.58696365 7.29511969 -0.4375 5.4375 C-0.35371094 4.42558594 -0.26992187 3.41367187 -0.18359375 2.37109375 C-0.12300781 1.58863281 -0.06242188 0.80617187 0 0 Z " fill="#34257D" transform="translate(176,255)"/>
<path d="M0 0 C0.66 0 1.32 0 2 0 C2.66 2.31 3.32 4.62 4 7 C4.66 7 5.32 7 6 7 C6.33 6.34 6.66 5.68 7 5 C8.24546405 7.49092811 7.7767578 8.41080733 7 11 C7.66 11.33 8.32 11.66 9 12 C9.33 10.35 9.66 8.7 10 7 C10.53625 6.87625 11.0725 6.7525 11.625 6.625 C14.13577583 5.99666745 14.13577583 5.99666745 17.0625 4.9375 C20 4 20 4 23 4 C24.68236471 3.37400383 26.3523962 2.71247732 28 2 C27.67 4.64 27.34 7.28 27 10 C27.99 10.33 28.98 10.66 30 11 C27.31581667 12.34209166 25.88064523 11.63233676 23 11 C22.01 11 21.02 11 20 11 C19.34 11.66 18.68 12.32 18 13 C16.66666667 14.33333333 15.33333333 15.66666667 14 17 C14 16.01 14 15.02 14 14 C13.236875 14.680625 12.47375 15.36125 11.6875 16.0625 C10.800625 16.701875 9.91375 17.34125 9 18 C8.01 17.67 7.02 17.34 6 17 C5.34 17.66 4.68 18.32 4 19 C3.34 19.33 2.68 19.66 2 20 C1.67 20.99 1.34 21.98 1 23 C-5.70459519 18.06345733 -5.70459519 18.06345733 -6.9375 13.625 C-6.9684375 12.325625 -6.9684375 12.325625 -7 11 C-6.01 10.67 -5.02 10.34 -4 10 C-4 9.34 -4 8.68 -4 8 C-2.68 7.67 -1.36 7.34 0 7 C0 4.69 0 2.38 0 0 Z " fill="#791B89" transform="translate(143,58)"/>
<path d="M0 0 C-2.37823834 4.84455959 -2.37823834 4.84455959 -4 7 C-6.75 7.9375 -6.75 7.9375 -9 8 C-9 9.32 -9 10.64 -9 12 C-6.34771188 13.07525194 -3.71631546 14.09456151 -1 15 C-1 15.66 -1 16.32 -1 17 C0.98 16.34 2.96 15.68 5 15 C5 15.66 5 16.32 5 17 C5.66 17.33 6.32 17.66 7 18 C7.66 18.66 8.32 19.32 9 20 C9.99 20 10.98 20 12 20 C14 21 14 21 16 24 C16.93519355 26.89910002 17 28.84586503 17 32 C14.525 32.495 14.525 32.495 12 33 C11.67 32.01 11.34 31.02 11 30 C10.34 30 9.68 30 9 30 C9 29.01 9 28.02 9 27 C7.02 26.34 5.04 25.68 3 25 C3 24.34 3 23.68 3 23 C2.195625 22.87625 1.39125 22.7525 0.5625 22.625 C-0.7059375 22.315625 -0.7059375 22.315625 -2 22 C-2.33 21.34 -2.66 20.68 -3 20 C-3.99 19.67 -4.98 19.34 -6 19 C-6 18.34 -6 17.68 -6 17 C-6.66 17 -7.32 17 -8 17 C-8 16.01 -8 15.02 -8 14 C-8.66 14 -9.32 14 -10 14 C-12.3283935 12.23042094 -12.95288806 11.18416484 -13.6875 8.3125 C-13.790625 7.549375 -13.89375 6.78625 -14 6 C-13.34 6 -12.68 6 -12 6 C-12 5.34 -12 4.68 -12 4 C-11.34 4 -10.68 4 -10 4 C-9.5978125 2.7934375 -9.5978125 2.7934375 -9.1875 1.5625 C-8.795625 0.716875 -8.40375 -0.12875 -8 -1 C-4.37673261 -2.2077558 -3.35853631 -1.54311128 0 0 Z " fill="#711F9A" transform="translate(323,172)"/>
<path d="M0 0 C1.14901495 0.00138269 1.14901495 0.00138269 2.32124233 0.00279331 C3.19768902 0.00141865 4.0741357 0.00004398 4.97714138 -0.00137234 C6.43046368 0.00402058 6.43046368 0.00402058 7.91314602 0.00952244 C8.92766338 0.00937641 9.94218075 0.00923038 10.98744106 0.00907993 C14.35844936 0.00977954 17.72940317 0.01757414 21.10040188 0.02539158 C23.43067806 0.02725559 25.76095463 0.02867957 28.09123135 0.0296793 C34.23811828 0.03350581 40.38498176 0.04333723 46.5318594 0.05438328 C52.79884429 0.06459454 59.06583295 0.06917631 65.33282375 0.0742197 C77.63947471 0.08495938 89.94610822 0.10203739 102.25274563 0.12304783 C102.25274563 0.45304783 102.25274563 0.78304783 102.25274563 1.12304783 C68.26274563 1.12304783 34.27274563 1.12304783 -0.74725437 1.12304783 C-0.74725437 29.17304783 -0.74725437 57.22304783 -0.74725437 86.12304783 C-1.07725437 86.12304783 -1.40725437 86.12304783 -1.74725437 86.12304783 C-1.80784031 84.85589939 -1.86842625 83.58875095 -1.93084812 82.28320408 C-2.01534002 80.58397819 -2.09998356 78.88475983 -2.18475437 77.18554783 C-2.22407078 76.35474705 -2.26338718 75.52394627 -2.303895 74.6679697 C-2.36673679 73.42563572 -2.36673679 73.42563572 -2.43084812 72.15820408 C-2.46750584 71.40933933 -2.50416355 70.66047459 -2.54193211 69.88891697 C-2.65639491 68.34700367 -2.78946731 66.80513492 -2.99298191 65.27243137 C-3.88926774 58.43350425 -3.79878618 51.69733738 -3.66131687 44.81054783 C-3.64007755 43.56047947 -3.61883823 42.31041111 -3.5969553 41.02246189 C-3.53918717 37.72831354 -3.47590212 34.43432712 -3.41064548 31.14032078 C-3.35922589 28.43846206 -3.31579524 25.73649793 -3.27234936 23.03450108 C-3.21939319 19.81392626 -3.15883093 16.59349771 -3.09881687 13.37304783 C-3.07896732 12.15963718 -3.05911777 10.94622654 -3.03866673 9.69604588 C-3.01549381 8.58398777 -2.9923209 7.47192966 -2.96844578 6.32617283 C-2.94988529 5.34294041 -2.93132481 4.35970798 -2.91220188 3.34668064 C-2.71436445 0.67966373 -2.67790112 0.18858726 0 0 Z " fill="#7E4294" transform="translate(177.74725437164307,98.87695217132568)"/>
<path d="M0 0 C0.66 0.33 1.32 0.66 2 1 C0.79979936 4.0862302 -0.52019472 7.04038944 -2 10 C-2.33 10.99 -2.66 11.98 -3 13 C-1.35 12.34 0.3 11.68 2 11 C3.5625 13.375 3.5625 13.375 5 16 C4.67 16.66 4.34 17.32 4 18 C3.34 18 2.68 18 2 18 C2.350625 18.721875 2.70125 19.44375 3.0625 20.1875 C4.10409017 23.3122705 3.89096572 24.88161996 3 28 C1.02 28.66 -0.96 29.32 -3 30 C-3.99 29.01 -4.98 28.02 -6 27 C-5.34 26.67 -4.68 26.34 -4 26 C-5.32 24.68 -6.64 23.36 -8 22 C-6.02 22.33 -4.04 22.66 -2 23 C-1.34 21.68 -0.68 20.36 0 19 C-2.97 19 -5.94 19 -9 19 C-9.66 17.68 -10.32 16.36 -11 15 C-9.42105792 12.63158688 -8.0245738 10.93254772 -6 9 C-6.33 8.34 -6.66 7.68 -7 7 C-7.039992 5.00039988 -7.04346799 2.99952758 -7 1 C-6.67 1.66 -6.34 2.32 -6 3 C-5.05125 2.484375 -4.1025 1.96875 -3.125 1.4375 C-2.09375 0.963125 -1.0625 0.48875 0 0 Z " fill="#0B246C" transform="translate(355,224)"/>
<path d="M0 0 C1.68991979 0.9601817 3.36209288 1.95355934 5 3 C4.566875 3.8353125 4.566875 3.8353125 4.125 4.6875 C2.94777265 7.02046961 2.94777265 7.02046961 2 9.625 C1 12 1 12 -1 14 C-2.875 14.44921875 -2.875 14.44921875 -5 14.6875 C-5.70125 14.77386719 -6.4025 14.86023438 -7.125 14.94921875 C-9 15 -9 15 -11 14 C-11 10.7 -11 7.4 -11 4 C-22.88 4 -34.76 4 -47 4 C-47 3.67 -47 3.34 -47 3 C-34.79 3 -22.58 3 -10 3 C-10 2.34 -10 1.68 -10 1 C-3.55414013 -1.49044586 -3.55414013 -1.49044586 0 0 Z " fill="#4F2D72" transform="translate(280,192)"/>
<path d="M0 0 C0.66 0.33 1.32 0.66 2 1 C4.46082547 8.51918893 5.18281631 17.35141164 3 25 C3.66 25.33 4.32 25.66 5 26 C4.34 26 3.68 26 3 26 C3.33 26.61875 3.66 27.2375 4 27.875 C5 30 5 30 5 32 C6.98 32.66 8.96 33.32 11 34 C11 34.66 11 35.32 11 36 C11.66 36 12.32 36 13 36 C13 36.99 13 37.98 13 39 C13.66 39 14.32 39 15 39 C15 39.66 15 40.32 15 41 C16.32 41.33 17.64 41.66 19 42 C16 43 16 43 13 42 C13 41.34 13 40.68 13 40 C11.515 39.505 11.515 39.505 10 39 C9.67 38.34 9.34 37.68 9 37 C8.21625 36.71125 7.4325 36.4225 6.625 36.125 C3.56651249 34.81421964 2.66218284 33.8494563 1 31 C0.27648573 29.01985568 -0.40265389 27.02178685 -1 25 C-0.34 25 0.32 25 1 25 C0.67 24.34 0.34 23.68 0 23 C-0.04022391 20.6670134 -0.04320247 18.33293334 0 16 C-1.98 17.65 -3.96 19.3 -6 21 C-5.67 19.35 -5.34 17.7 -5 16 C-4.01 15.67 -3.02 15.34 -2 15 C-1.8007711 9.77282434 -1.8007711 9.77282434 -2.6875 4.6875 C-2.790625 4.130625 -2.89375 3.57375 -3 3 C-1.5625 1.25 -1.5625 1.25 0 0 Z " fill="#481189" transform="translate(302,150)"/>
<path d="M0 0 C0.33 0 0.66 0 1 0 C1.04630932 9.2054213 1.08186203 18.41080259 1.10362434 27.61631489 C1.11406835 31.89065473 1.12823877 36.16491496 1.15087891 40.43920898 C1.17258534 44.56296256 1.18456398 48.68663949 1.18975449 52.81044579 C1.1934542 54.38494257 1.2006787 55.95943509 1.21146011 57.53389931 C1.22594594 59.73664084 1.22797918 61.93906432 1.22705078 64.1418457 C1.231492 65.39649124 1.23593323 66.65113678 1.24050903 67.94380188 C1 71 1 71 -1 74 C-1.05607422 72.42798828 -1.05607422 72.42798828 -1.11328125 70.82421875 C-1.17894515 69.44527695 -1.24539235 68.06637229 -1.3125 66.6875 C-1.33505859 65.99720703 -1.35761719 65.30691406 -1.38085938 64.59570312 C-1.58045174 60.57108549 -1.58045174 60.57108549 -3.41796875 57.08203125 C-5.02189118 55.93246915 -5.02189118 55.93246915 -7 55 C-6.175 54.4225 -5.35 53.845 -4.5 53.25 C-2.37990271 51.17781452 -2.01243892 50.09818805 -1.6328125 47.1015625 C-1.62246173 42.82669269 -1.64181684 39.07454948 -3 35 C-2.67 34.01 -2.34 33.02 -2 32 C-1.93197033 30.27204648 -1.91504355 28.54164635 -1.9375 26.8125 C-1.94652344 25.91144531 -1.95554688 25.01039063 -1.96484375 24.08203125 C-1.97644531 23.39496094 -1.98804688 22.70789063 -2 22 C-2.99 21.67 -3.98 21.34 -5 21 C-4.01 20.67 -3.02 20.34 -2 20 C-2.020625 18.700625 -2.04125 17.40125 -2.0625 16.0625 C-2.08399454 14.70834367 -2.07148199 13.35243917 -2 12 C-1.67 11.67 -1.34 11.34 -1 11 C-0.76636119 9.15108054 -0.58696365 7.29511969 -0.4375 5.4375 C-0.35371094 4.42558594 -0.26992187 3.41367187 -0.18359375 2.37109375 C-0.12300781 1.58863281 -0.06242188 0.80617187 0 0 Z " fill="#252566" transform="translate(176,255)"/>
<path d="M0 0 C0.33 0 0.66 0 1 0 C1.75519374 11.7053691 2.14063058 23.34200443 2.09765625 35.0703125 C2.0957831 36.61400302 2.09436346 38.15769416 2.09336853 39.7013855 C2.0896138 43.69604232 2.07984697 47.69066073 2.06866455 51.68530273 C2.05829572 55.78889446 2.05383834 59.8924926 2.04882812 63.99609375 C2.03821567 71.99741314 2.02122807 79.99870175 2 88 C1.67 88 1.34 88 1 88 C0.67 82.39 0.34 76.78 0 71 C-0.66 71 -1.32 71 -2 71 C-2 70.34 -2 69.68 -2 69 C-1.34 69 -0.68 69 0 69 C-0.33 63.39 -0.66 57.78 -1 52 C-1.99 51.67 -2.98 51.34 -4 51 C-3 49 -3 49 -1 48 C-0.67 41.4 -0.34 34.8 0 28 C-0.99 28 -1.98 28 -3 28 C-2.67 27.01 -2.34 26.02 -2 25 C-1.34 25 -0.68 25 0 25 C-0.08378906 23.94941406 -0.16757813 22.89882812 -0.25390625 21.81640625 C-0.80665704 14.38743563 -1.18883008 7.39716495 0 0 Z " fill="#471072" transform="translate(175,167)"/>
<path d="M0 0 C4.08718695 -0.24042276 7.17679443 0.57741188 11 2 C11.33 1.34 11.66 0.68 12 0 C14 1 14 1 17 3 C16.690625 3.886875 16.38125 4.77375 16.0625 5.6875 C14.93705389 8.86599929 14.93705389 8.86599929 14.625 11.75 C14 14 14 14 12.125 15.1875 C11.42375 15.455625 10.7225 15.72375 10 16 C9.01 16.66 8.02 17.32 7 18 C4.70986347 14.5647952 4.82157027 13.014669 5 9 C4.34 8.67 3.68 8.34 3 8 C2.67 8.66 2.34 9.32 2 10 C1.875 7.625 1.875 7.625 2 5 C2.66 4.34 3.32 3.68 4 3 C3.01 3.33 2.02 3.66 1 4 C0.67 2.68 0.34 1.36 0 0 Z " fill="#271369" transform="translate(61,273)"/>
<path d="M0 0 C0.33 0 0.66 0 1 0 C1 3.96 1 7.92 1 12 C0.34 12 -0.32 12 -1 12 C-1 12.66 -1 13.32 -1 14 C-0.34 14 0.32 14 1 14 C1 16.31 1 18.62 1 21 C-0.32 20.34 -1.64 19.68 -3 19 C-3.66 19.66 -4.32 20.32 -5 21 C-5.99 20.67 -6.98 20.34 -8 20 C-10.14255793 20.38932856 -10.14255793 20.38932856 -12 21 C-12.66 19.68 -13.32 18.36 -14 17 C-13.34 17 -12.68 17 -12 17 C-10.79371992 14.66785852 -9.8345262 12.50357861 -9 10 C-7.68 10 -6.36 10 -5 10 C-4.87625 9.38125 -4.7525 8.7625 -4.625 8.125 C-4 6 -4 6 -2 4 C-1.30251417 2.68252676 -0.63040043 1.35085807 0 0 Z " fill="#4D0D81" transform="translate(174,224)"/>
<path d="M0 0 C0.33 0 0.66 0 1 0 C1 3.63 1 7.26 1 11 C7.64968263 9.52389642 7.64968263 9.52389642 12.0625 4.8125 C12.371875 3.884375 12.68125 2.95625 13 2 C14.98 2 16.96 2 19 2 C19.66 3.32 20.32 4.64 21 6 C20 7 19 8 18 9 C17.401875 9.680625 16.80375 10.36125 16.1875 11.0625 C13.57427851 13.37706761 11.37662822 14.19254543 8 15 C7.34 14.67 6.68 14.34 6 14 C6 13.34 6 12.68 6 12 C3.92334505 13.12581175 3.92334505 13.12581175 2 15 C1.37616664 17.69513477 1.37616664 17.69513477 1.375 20.625 C1.2734375 23.6015625 1.2734375 23.6015625 1 26 C0.34 26.33 -0.32 26.66 -1 27 C-1.09471858 17.9280648 -1.14516104 9.01814321 0 0 Z " fill="#221D5D" transform="translate(270,196)"/>
<path d="M0 0 C1 3 1 3 1.4375 5.625 C1.7159375 6.800625 1.7159375 6.800625 2 8 C2.66 8.33 3.32 8.66 4 9 C4.625 11.0625 4.625 11.0625 5 13 C5.99 13 6.98 13 8 13 C7.67 14.32 7.34 15.64 7 17 C5.35 16.67 3.7 16.34 2 16 C1.01 17.32 0.02 18.64 -1 20 C-1.33 17.36 -1.66 14.72 -2 12 C-2.598125 11.95875 -3.19625 11.9175 -3.8125 11.875 C-6 11 -6 11 -7.8125 8.1875 C-8.98068499 5.05184556 -9.26950234 4.0006419 -8 1 C-6.865625 1.020625 -5.73125 1.04125 -4.5625 1.0625 C-1.18424326 1.41577477 -1.18424326 1.41577477 0 0 Z " fill="#2C0F6A" transform="translate(99,275)"/>
<path d="M0 0 C11.88 0 23.76 0 36 0 C36 0.33 36 0.66 36 1 C25.11 1 14.22 1 3 1 C3.02320313 3.53171875 3.04640625 6.0634375 3.0703125 8.671875 C3.08597586 11.16422018 3.09808239 13.65655957 3.10986328 16.14892578 C3.11982955 17.86151646 3.13340747 19.57409054 3.15087891 21.28662109 C3.24798286 31.05984856 3.13419273 40.39974182 1 50 C0.67 50 0.34 50 0 50 C0 33.5 0 17 0 0 Z " fill="#000121" transform="translate(233,250)"/>
<path d="M0 0 C0 0.66 0 1.32 0 2 C0.66 2.33 1.32 2.66 2 3 C2.66 3.66 3.32 4.32 4 5 C4.99 5 5.98 5 7 5 C9 6 9 6 11 9 C11.93519355 11.89910002 12 13.84586503 12 17 C10.35 17.33 8.7 17.66 7 18 C6.67 17.01 6.34 16.02 6 15 C5.34 15 4.68 15 4 15 C4 14.01 4 13.02 4 12 C3.34 12 2.68 12 2 12 C1.5875 11.05125 1.175 10.1025 0.75 9.125 C-1.0040131 5.99283376 -1.70851757 5.13499394 -5 4 C-4.67 3.01 -4.34 2.02 -4 1 C-2 0 -2 0 0 0 Z " fill="#5F0C95" transform="translate(328,187)"/>
<path d="M0 0 C2.0625 2.25 2.0625 2.25 4 5 C3.62109375 7.171875 3.62109375 7.171875 3 9 C0.41718164 9.22224251 -2.16522187 9.42823488 -4.75 9.625 C-5.47960937 9.68945312 -6.20921875 9.75390625 -6.9609375 9.8203125 C-10.85911736 10.10381649 -13.70645322 10.27081383 -17 8 C-16.8125 5.625 -16.8125 5.625 -16 3 C-13.625 1.625 -13.625 1.625 -11 1 C-7.66462511 2.11179163 -6.36292656 3.47411298 -4 6 C-2.80909311 4.98898182 -2.80909311 4.98898182 -2.5625 3 C-2.376875 2.34 -2.19125 1.68 -2 1 C-1.34 0.67 -0.68 0.34 0 0 Z " fill="#7A1B91" transform="translate(124,91)"/>
<path d="M0 0 C0.66 0 1.32 0 2 0 C2 0.66 2 1.32 2 2 C2.66 2 3.32 2 4 2 C4 1.34 4 0.68 4 0 C5.65 0 7.3 0 9 0 C9 1.32 9 2.64 9 4 C9.99 4 10.98 4 12 4 C12 6.97 12 9.94 12 13 C9.37886292 13 7.49064888 12.68707555 5 12 C5 11.34 5 10.68 5 10 C3.02 9.34 1.04 8.68 -1 8 C-0.835 7.236875 -0.67 6.47375 -0.5 5.6875 C0.09145396 2.96403764 0.09145396 2.96403764 0 0 Z M1 6 C2 8 2 8 2 8 Z " fill="#4F1989" transform="translate(144,266)"/>
<path d="M0 0 C1.32 0 2.64 0 4 0 C4 1.32 4 2.64 4 4 C3.13375 4.33 2.2675 4.66 1.375 5 C-3.90896376 8.13123778 -6.64217418 12.96326126 -10 18 C-12 20 -12 20 -15.25 20.3125 C-16.1575 20.209375 -17.065 20.10625 -18 20 C-16.25 14.25 -16.25 14.25 -14 12 C-12.68 12 -11.36 12 -10 12 C-10 11.01 -10 10.02 -10 9 C-8.35 8.67 -6.7 8.34 -5 8 C-5 6.35 -5 4.7 -5 3 C-3.35 2.67 -1.7 2.34 0 2 C0 1.34 0 0.68 0 0 Z " fill="#071C7E" transform="translate(353,253)"/>
<path d="M0 0 C0.33 0 0.66 0 1 0 C2 6.625 2 6.625 2 10 C2.185625 10.94875 2.37125 11.8975 2.5625 12.875 C3.00537012 16.03835797 2.6238717 17.91299038 2 21 C1.95711066 22.6244339 1.95951413 24.25050442 2 25.875 C2.07740684 32.94804966 1.53275271 39.95053998 1 47 C0.34 47 -0.32 47 -1 47 C-1.02472278 40.94938454 -1.04287086 34.89879851 -1.05493164 28.84814453 C-1.05995973 26.78987109 -1.06678306 24.73160122 -1.07543945 22.67333984 C-1.08757166 19.71450926 -1.09324357 16.75572592 -1.09765625 13.796875 C-1.10281754 12.87694763 -1.10797882 11.95702026 -1.11329651 11.00921631 C-1.11337204 10.1486261 -1.11344757 9.28803589 -1.11352539 8.40136719 C-1.115746 7.64635925 -1.11796661 6.89135132 -1.12025452 6.11346436 C-0.99775975 3.9606277 -0.59128419 2.06919263 0 0 Z " fill="#000C55" transform="translate(234,296)"/>
<path d="M0 0 C0.66 0.33 1.32 0.66 2 1 C0.79979936 4.0862302 -0.52019472 7.04038944 -2 10 C-2.33 10.99 -2.66 11.98 -3 13 C-2.34 13 -1.68 13 -1 13 C-0.67 13.99 -0.34 14.98 0 16 C-0.66 16.33 -1.32 16.66 -2 17 C-2 16.34 -2 15.68 -2 15 C-2.99 15 -3.98 15 -5 15 C-5 15.66 -5 16.32 -5 17 C-4.34 17.33 -3.68 17.66 -3 18 C-4.98 18.33 -6.96 18.66 -9 19 C-9.66 17.68 -10.32 16.36 -11 15 C-9.42105792 12.63158688 -8.0245738 10.93254772 -6 9 C-6.33 8.34 -6.66 7.68 -7 7 C-7.039992 5.00039988 -7.04346799 2.99952758 -7 1 C-6.67 1.66 -6.34 2.32 -6 3 C-5.05125 2.484375 -4.1025 1.96875 -3.125 1.4375 C-2.09375 0.963125 -1.0625 0.48875 0 0 Z " fill="#172A76" transform="translate(355,224)"/>
<path d="M0 0 C2.475 0.495 2.475 0.495 5 1 C4.67 1.99 4.34 2.98 4 4 C3.01 4 2.02 4 1 4 C0.67 4.99 0.34 5.98 0 7 C-1.32 7 -2.64 7 -4 7 C-4.33 6.34 -4.66 5.68 -5 5 C-5.6496875 5.7425 -5.6496875 5.7425 -6.3125 6.5 C-8 8 -8 8 -11 8 C-11.33 8.99 -11.66 9.98 -12 11 C-13.65 10.67 -15.3 10.34 -17 10 C-17.103125 9.360625 -17.20625 8.72125 -17.3125 8.0625 C-17.539375 7.381875 -17.76625 6.70125 -18 6 C-18.99 5.67 -19.98 5.34 -21 5 C-17.52176885 3.84058962 -15.54104422 4.29179116 -12 5 C-12 4.34 -12 3.68 -12 3 C-8.37 3 -4.74 3 -1 3 C-0.67 2.01 -0.34 1.02 0 0 Z " fill="#2C0F72" transform="translate(127,288)"/>
<path d="M0 0 C0.66 0 1.32 0 2 0 C2 0.66 2 1.32 2 2 C3.98 2.66 5.96 3.32 8 4 C8 4.99 8 5.98 8 7 C8.66 7 9.32 7 10 7 C10.66 7.66 11.32 8.32 12 9 C12.680625 9.598125 13.36125 10.19625 14.0625 10.8125 C16.23318223 13.26327026 16.64370166 14.79331491 17 18 C16.01 17.34 15.02 16.68 14 16 C12.68 16 11.36 16 10 16 C9.67 14.35 9.34 12.7 9 11 C6.03 10.505 6.03 10.505 3 10 C2.01 6.7 1.02 3.4 0 0 Z " fill="#361081" transform="translate(324,195)"/>
<path d="M0 0 C2.0625 0.4375 2.0625 0.4375 4 1 C3.67 2.65 3.34 4.3 3 6 C2.01 6.33 1.02 6.66 0 7 C0.61875 7.391875 1.2375 7.78375 1.875 8.1875 C4.36407679 10.31053609 5.06825077 11.89416923 6 15 C6 15.99 6 16.98 6 18 C4.35 17.67 2.7 17.34 1 17 C1.33 15.68 1.66 14.36 2 13 C1.01 13 0.02 13 -1 13 C-1 12.01 -1 11.02 -1 10 C-1.66 9.67 -2.32 9.34 -3 9 C-4.6875 7.6875 -4.6875 7.6875 -6 6 C-5.6875 3.8125 -5.6875 3.8125 -5 2 C-4.360625 1.855625 -3.72125 1.71125 -3.0625 1.5625 C-1.02454854 1.18992819 -1.02454854 1.18992819 0 0 Z " fill="#361073" transform="translate(105,275)"/>
<path d="M0 0 C2.33944736 0.28730055 4.6739143 0.61936779 7 1 C7 1.99 7 2.98 7 4 C6.01 4.495 6.01 4.495 5 5 C4.8453125 6.2065625 4.8453125 6.2065625 4.6875 7.4375 C4.460625 8.283125 4.23375 9.12875 4 10 C1.4375 11.3125 1.4375 11.3125 -1 12 C-1.28875 11.236875 -1.5775 10.47375 -1.875 9.6875 C-2.96269013 6.84970692 -2.96269013 6.84970692 -5 4 C-4.67 3.01 -4.34 2.02 -4 1 C-3.01 1 -2.02 1 -1 1 C-0.67 0.67 -0.34 0.34 0 0 Z M-2 12 C-1.67 12.66 -1.34 13.32 -1 14 C-1.66 13.67 -2.32 13.34 -3 13 C-2.67 12.67 -2.34 12.34 -2 12 Z " fill="#7A178F" transform="translate(117,69)"/>
<path d="M0 0 C0.33 0 0.66 0 1 0 C1.02484561 5.55012695 1.04292868 11.10022102 1.05493164 16.65039062 C1.05993919 18.53581303 1.06674715 20.4212316 1.07543945 22.30664062 C1.08766253 25.02735344 1.09326424 27.7480146 1.09765625 30.46875 C1.10281754 31.30241089 1.10797882 32.13607178 1.11329651 32.99499512 C1.11377714 38.08707816 0.73129553 42.95937477 0 48 C-0.61875 47.525625 -1.2375 47.05125 -1.875 46.5625 C-3.90705546 44.97582559 -3.90705546 44.97582559 -6 44 C-5.175 43.4225 -4.35 42.845 -3.5 42.25 C-1.37990271 40.17781452 -1.01243892 39.09818805 -0.6328125 36.1015625 C-0.62246173 31.82669269 -0.64181684 28.07454948 -2 24 C-1.67 23.01 -1.34 22.02 -1 21 C-0.93197033 19.27204648 -0.91504355 17.54164635 -0.9375 15.8125 C-0.94652344 14.91144531 -0.95554688 14.01039063 -0.96484375 13.08203125 C-0.97644531 12.39496094 -0.98804688 11.70789063 -1 11 C-1.99 10.67 -2.98 10.34 -4 10 C-3.01 9.67 -2.02 9.34 -1 9 C-1.020625 7.700625 -1.04125 6.40125 -1.0625 5.0625 C-1.08399454 3.70834367 -1.07148199 2.35243917 -1 1 C-0.67 0.67 -0.34 0.34 0 0 Z " fill="#1F1C71" transform="translate(175,266)"/>
<path d="M0 0 C9.9 0 19.8 0 30 0 C28 2 28 2 25.56982422 2.13525391 C24.07733154 2.05670166 24.07733154 2.05670166 22.5546875 1.9765625 C20.94013672 1.89921875 20.94013672 1.89921875 19.29296875 1.8203125 C17.60107422 1.72363281 17.60107422 1.72363281 15.875 1.625 C14.17150391 1.53992188 14.17150391 1.53992188 12.43359375 1.453125 C9.6217837 1.31135306 6.81082719 1.15991439 4 1 C3.63355422 2.55966592 3.28239138 4.12292651 2.9375 5.6875 C2.74027344 6.55761719 2.54304687 7.42773438 2.33984375 8.32421875 C1.97719513 11.17955557 2.34724449 13.2174742 3 16 C2.91878575 17.94128253 2.77195686 19.88084231 2.5625 21.8125 C2.46066406 22.78832031 2.35882813 23.76414063 2.25390625 24.76953125 C2.17011719 25.50558594 2.08632812 26.24164063 2 27 C1.67 27 1.34 27 1 27 C-0.01885997 21.15158333 -0.11753524 15.48925936 -0.0625 9.5625 C-0.041875 6.406875 -0.02125 3.25125 0 0 Z " fill="#3A0155" transform="translate(233,155)"/>
<path d="M0 0 C4.08718695 -0.24042276 7.17679443 0.57741188 11 2 C11.33 1.34 11.66 0.68 12 0 C14 1 14 1 17 3 C15.25 7.875 15.25 7.875 13 9 C13 9.66 13 10.32 13 11 C11.68 10.67 10.36 10.34 9 10 C9.33 9.34 9.66 8.68 10 8 C9.34 8 8.68 8 8 8 C7.67 6.68 7.34 5.36 7 4 C3.95086772 2.98888907 3.95086772 2.98888907 1 4 C0.67 2.68 0.34 1.36 0 0 Z " fill="#281369" transform="translate(61,273)"/>
<path d="M0 0 C2.4375 0.6875 2.4375 0.6875 5 2 C6.26758969 5.12672123 6.13066316 6.60801052 5.0625 9.8125 C4.711875 10.534375 4.36125 11.25625 4 12 C2.35 11.67 0.7 11.34 -1 11 C-0.34 10.67 0.32 10.34 1 10 C0.34 9.34 -0.32 8.68 -1 8 C-1.66 8 -2.32 8 -3 8 C-3 5.69 -3 3.38 -3 1 C-2.01 1 -1.02 1 0 1 C0 0.67 0 0.34 0 0 Z " fill="#4E2B8B" transform="translate(161,279)"/>
<path d="M0 0 C3.96230208 6.5620734 2.32056034 15.73691811 1 23 C-1.94112432 20.03598755 -2.9622669 18.57086521 -3.2421875 14.3359375 C-3.12101562 13.02882812 -2.99984375 11.72171875 -2.875 10.375 C-2.76929688 9.06273437 -2.66359375 7.75046875 -2.5546875 6.3984375 C-2 3 -2 3 0 0 Z " fill="#2B0B72" transform="translate(295,168)"/>
<path d="M0 0 C1.24546405 2.49092811 0.7767578 3.41080733 0 6 C0.66 6.33 1.32 6.66 2 7 C1.34 7 0.68 7 0 7 C0.495 7.928125 0.495 7.928125 1 8.875 C2 11 2 11 2 13 C3.98 13.66 5.96 14.32 8 15 C8 15.66 8 16.32 8 17 C8.66 17 9.32 17 10 17 C10 17.99 10 18.98 10 20 C10.66 20 11.32 20 12 20 C12 20.66 12 21.32 12 22 C13.32 22.33 14.64 22.66 16 23 C13 24 13 24 10 23 C10 22.34 10 21.68 10 21 C9.01 20.67 8.02 20.34 7 20 C6.67 19.34 6.34 18.68 6 18 C5.195625 17.7525 4.39125 17.505 3.5625 17.25 C1 16 1 16 -0.25 13.375 C-1.10579522 9.52392151 -1.73721052 5.94184215 -2 2 C-1.34 1.34 -0.68 0.68 0 0 Z " fill="#471294" transform="translate(305,169)"/>
<path d="M0 0 C0.875 2.125 0.875 2.125 1 4 C-1.97 6.475 -1.97 6.475 -5 9 C-5 7.68 -5 6.36 -5 5 C-6.32 4.67 -7.64 4.34 -9 4 C-8.34 2.68 -7.68 1.36 -7 0 C-7.66 -0.33 -8.32 -0.66 -9 -1 C-5.1851221 -2.27162597 -3.6068725 -1.64661571 0 0 Z " fill="#680F8A" transform="translate(164,203)"/>
<path d="M0 0 C0.66 0.33 1.32 0.66 2 1 C1.505 2.093125 1.01 3.18625 0.5 4.3125 C-1.18839906 7.79966245 -1.18839906 7.79966245 -1 11 C-0.34 11.33 0.32 11.66 1 12 C-1.625 15.875 -1.625 15.875 -5 17 C-5 16.34 -5 15.68 -5 15 C-5.99 14.67 -6.98 14.34 -8 14 C-7.566875 13.484375 -7.13375 12.96875 -6.6875 12.4375 C-4.62538493 9.45888934 -3.395163 6.33625935 -2 3 C-1.34 2.01 -0.68 1.02 0 0 Z " fill="#53197C" transform="translate(105,192)"/>
<path d="M0 0 C2.0625 2.25 2.0625 2.25 4 5 C3.67 6.32 3.34 7.64 3 9 C-0.3 9.33 -3.6 9.66 -7 10 C-7 8.68 -7 7.36 -7 6 C-6.01 6 -5.02 6 -4 6 C-2.80909311 4.98898182 -2.80909311 4.98898182 -2.5625 3 C-2.376875 2.34 -2.19125 1.68 -2 1 C-1.34 0.67 -0.68 0.34 0 0 Z " fill="#721891" transform="translate(124,91)"/>
<path d="M0 0 C1.65 0 3.3 0 5 0 C4.566875 0.8353125 4.566875 0.8353125 4.125 1.6875 C2.94777265 4.02046961 2.94777265 4.02046961 2 6.625 C1 9 1 9 -1 11 C-3.65537372 11.56520003 -6.29144713 11.73788198 -9 12 C-9 10.68 -9 9.36 -9 8 C-6.36 8 -3.72 8 -1 8 C-0.67 5.36 -0.34 2.72 0 0 Z " fill="#3E266D" transform="translate(280,195)"/>
<path d="M0 0 C2.51225994 2.18457386 3.50018541 3.70122369 4 7 C4 8.32 4 9.64 4 11 C2.35 11.33 0.7 11.66 -1 12 C-2.4606285 9.35261084 -3 8.10551666 -3 5 C-2.34 5 -1.68 5 -1 5 C-0.67 3.35 -0.34 1.7 0 0 Z " fill="#5C098E" transform="translate(336,193)"/>
<path d="M0 0 C2.31 0 4.62 0 7 0 C7.061875 0.61875 7.12375 1.2375 7.1875 1.875 C7.455625 2.57625 7.72375 3.2775 8 4 C8.804375 4.309375 9.60875 4.61875 10.4375 4.9375 C13 6 13 6 14.3125 8.625 C14.6528125 9.800625 14.6528125 9.800625 15 11 C13.68 10.67 12.36 10.34 11 10 C11 9.34 11 8.68 11 8 C9.7934375 7.814375 9.7934375 7.814375 8.5625 7.625 C7.716875 7.41875 6.87125 7.2125 6 7 C5.67 6.34 5.34 5.68 5 5 C4.01 4.67 3.02 4.34 2 4 C2 3.34 2 2.68 2 2 C1.34 2 0.68 2 0 2 C0 1.34 0 0.68 0 0 Z " fill="#531B9C" transform="translate(315,187)"/>
<path d="M0 0 C0.33 0.66 0.66 1.32 1 2 C1.66 2 2.32 2 3 2 C3 7.61 3 13.22 3 19 C2.67 19 2.34 19 2 19 C2 17.35 2 15.7 2 14 C-0.97 16.475 -0.97 16.475 -4 19 C-3.67 17.35 -3.34 15.7 -3 14 C-2.01 13.67 -1.02 13.34 0 13 C0.10968626 6.92747004 0.10968626 6.92747004 -1 1 C-0.67 0.67 -0.34 0.34 0 0 Z " fill="#3C1582" transform="translate(300,152)"/>
<path d="M0 0 C1.32 0 2.64 0 4 0 C3.67 3.96 3.34 7.92 3 12 C3.66 12 4.32 12 5 12 C4.67 13.32 4.34 14.64 4 16 C0.15870308 11.17375515 -1.62257767 8.16456476 -2 2 C-1.34 2 -0.68 2 0 2 C0 1.34 0 0.68 0 0 Z " fill="#271384" transform="translate(304,188)"/>
<path d="M0 0 C0.99 0.66 1.98 1.32 3 2 C3.66 2.33 4.32 2.66 5 3 C4.67 3.66 4.34 4.32 4 5 C4.66 5 5.32 5 6 5 C5.67 6.65 5.34 8.3 5 10 C4.195625 10.12375 3.39125 10.2475 2.5625 10.375 C1.716875 10.58125 0.87125 10.7875 0 11 C-0.33 11.66 -0.66 12.32 -1 13 C-1.33 12.34 -1.66 11.68 -2 11 C-2.66 10.67 -3.32 10.34 -4 10 C-2.35 9.01 -0.7 8.02 1 7 C0.4740625 5.824375 0.4740625 5.824375 -0.0625 4.625 C-0.371875 3.75875 -0.68125 2.8925 -1 2 C-0.67 1.34 -0.34 0.68 0 0 Z " fill="#413288" transform="translate(167,287)"/>
<path d="M0 0 C5.26053037 -0.31563182 8.44573816 0.33409063 13 3 C12.01 3.33 11.02 3.66 10 4 C9.67 4.99 9.34 5.98 9 7 C7.35 6.67 5.7 6.34 4 6 C3.896875 5.360625 3.79375 4.72125 3.6875 4.0625 C3.460625 3.381875 3.23375 2.70125 3 2 C2.01 1.67 1.02 1.34 0 1 C0 0.67 0 0.34 0 0 Z " fill="#19106D" transform="translate(106,292)"/>
<path d="M0 0 C0.66 0 1.32 0 2 0 C1.67 0.66 1.34 1.32 1 2 C0.67 1.34 0.34 0.68 0 0 Z M-2 0 C-1.67 0.66 -1.34 1.32 -1 2 C-0.34 2 0.32 2 1 2 C1.33 3.32 1.66 4.64 2 6 C2.99 5.67 3.98 5.34 5 5 C5.33 5.66 5.66 6.32 6 7 C5.34 7 4.68 7 4 7 C3.67 7.66 3.34 8.32 3 9 C0.03 8.505 0.03 8.505 -3 8 C-3.66 5.69 -4.32 3.38 -5 1 C-4.01 0.67 -3.02 0.34 -2 0 Z " fill="#1D2588" transform="translate(338,222)"/>
<path d="M0 0 C0.99 0 1.98 0 3 0 C3 1.98 3 3.96 3 6 C0.0173094 7.52448631 -2.818202 8.93940067 -6 10 C-6.66 9.67 -7.32 9.34 -8 9 C-7.67 8.01 -7.34 7.02 -7 6 C-6.195625 5.690625 -5.39125 5.38125 -4.5625 5.0625 C-1.85842507 4.23391841 -1.85842507 4.23391841 -0.6875 1.875 C-0.460625 1.25625 -0.23375 0.6375 0 0 Z " fill="#122264" transform="translate(284,201)"/>
<path d="M0 0 C2.125 1.4375 2.125 1.4375 2.9375 4.0625 C2.999375 4.84625 3.06125 5.63 3.125 6.4375 C1.805 6.4375 0.485 6.4375 -0.875 6.4375 C-1.205 5.7775 -1.535 5.1175 -1.875 4.4375 C-3.195 4.4375 -4.515 4.4375 -5.875 4.4375 C-6.865 5.9225 -6.865 5.9225 -7.875 7.4375 C-8.535 5.4575 -9.195 3.4775 -9.875 1.4375 C-3.73280886 -0.73033217 -3.73280886 -0.73033217 0 0 Z " fill="#651A87" transform="translate(111.875,183.5625)"/>
<path d="M0 0 C1.65 0.99 3.3 1.98 5 3 C4.67 3.99 4.34 4.98 4 6 C5.32 5.67 6.64 5.34 8 5 C7.67 5.99 7.34 6.98 7 8 C4.6739143 8.38063221 2.33944736 8.71269945 0 9 C-1 8 -1 8 -1.125 4.5 C-1 1 -1 1 0 0 Z " fill="#3E1582" transform="translate(343,214)"/>
<path d="M0 0 C5.57142857 5.14285714 5.57142857 5.14285714 6 9 C5.34 9 4.68 9 4 9 C3.67 9.66 3.34 10.32 3 11 C3 10.34 3 9.68 3 9 C2.360625 8.7525 1.72125 8.505 1.0625 8.25 C-1 7 -1 7 -1.875 5.0625 C-2 3 -2 3 0 0 Z " fill="#500F7A" transform="translate(125,233)"/>
<path d="M0 0 C-3.00887781 1.58158962 -5.63672037 2.43945339 -9 3 C-9.33 3.99 -9.66 4.98 -10 6 C-16.625 5.25 -16.625 5.25 -20 3 C-13.12418702 0.8408662 -7.21471629 -0.35482211 0 0 Z " fill="#1D1F45" transform="translate(207,349)"/>
<path d="M0 0 C0.66 0.33 1.32 0.66 2 1 C0.125 5.875 0.125 5.875 -1 7 C-2.99958364 7.04080783 -5.00045254 7.04254356 -7 7 C-7 5.02 -7 3.04 -7 1 C-6.67 1.66 -6.34 2.32 -6 3 C-5.05125 2.484375 -4.1025 1.96875 -3.125 1.4375 C-2.09375 0.963125 -1.0625 0.48875 0 0 Z " fill="#281A71" transform="translate(355,224)"/>
<path d="M0 0 C0.66 0.33 1.32 0.66 2 1 C2.40729228 3.32156597 2.74438677 5.6568787 3 8 C5.475 8.99 5.475 8.99 8 10 C8 10.66 8 11.32 8 12 C4.10913233 11.42357516 1.79382697 9.71831813 -1 7 C-1.8125 4.25 -1.8125 4.25 -2 2 C-1.34 2 -0.68 2 0 2 C0 1.34 0 0.68 0 0 Z " fill="#66159A" transform="translate(311,176)"/>
<path d="M0 0 C0.33 0.99 0.66 1.98 1 3 C1.99 3 2.98 3 4 3 C3.67 4.32 3.34 5.64 3 7 C1.35 6.67 -0.3 6.34 -2 6 C-2.99 7.32 -3.98 8.64 -5 10 C-5.33 7.69 -5.66 5.38 -6 3 C-3.525 3.495 -3.525 3.495 -1 4 C-0.67 2.68 -0.34 1.36 0 0 Z " fill="#230E6B" transform="translate(103,285)"/>
<path d="M0 0 C0.99 0.33 1.98 0.66 3 1 C3.25 3.3125 3.25 3.3125 3 6 C0.95575462 7.97610386 -0.1176825 9 -3 9 C-3.33 8.01 -3.66 7.02 -4 6 C-3.01 5.67 -2.02 5.34 -1 5 C-0.67 3.35 -0.34 1.7 0 0 Z M-6 10 C-4 11 -4 11 -4 11 Z " fill="#093275" transform="translate(340,244)"/>
<path d="M0 0 C0.66 0 1.32 0 2 0 C2 0.66 2 1.32 2 2 C3.98 2.66 5.96 3.32 8 4 C8 4.99 8 5.98 8 7 C8.66 7 9.32 7 10 7 C10.33 7.99 10.66 8.98 11 10 C5.33802191 8.68326091 3.25415939 6.59410737 0 2 C0 1.34 0 0.68 0 0 Z " fill="#3C1094" transform="translate(324,195)"/>
<path d="M0 0 C1.32 0.33 2.64 0.66 4 1 C3.75 3.375 3.75 3.375 3 6 C1.125 7.1875 1.125 7.1875 -1 8 C-1.99 8.66 -2.98 9.32 -4 10 C-4.66 9.01 -5.32 8.02 -6 7 C-5.01 7 -4.02 7 -3 7 C-2.67 5.68 -2.34 4.36 -2 3 C-0.68 3 0.64 3 2 3 C2 2.34 2 1.68 2 1 C1.34 0.67 0.68 0.34 0 0 Z " fill="#1B1363" transform="translate(72,281)"/>
<path d="M0 0 C3.85645121 -0.22036864 6.49223216 0.39644899 10 2 C10 3.98 10 5.96 10 8 C9.34 8 8.68 8 8 8 C7.67 6.68 7.34 5.36 7 4 C3.95086772 2.98888907 3.95086772 2.98888907 1 4 C0.67 2.68 0.34 1.36 0 0 Z " fill="#3A1873" transform="translate(61,273)"/>
<path d="M0 0 C-0.33 0.99 -0.66 1.98 -1 3 C-1.78246094 3.04898438 -2.56492187 3.09796875 -3.37109375 3.1484375 C-4.38300781 3.22320312 -5.39492188 3.29796875 -6.4375 3.375 C-7.44683594 3.44460937 -8.45617187 3.51421875 -9.49609375 3.5859375 C-10.73552734 3.79089844 -10.73552734 3.79089844 -12 4 C-12.33 4.66 -12.66 5.32 -13 6 C-13.99 5.34 -14.98 4.68 -16 4 C-5.62642369 -1.92482916 -5.62642369 -1.92482916 0 0 Z " fill="#3D0C5E" transform="translate(282,189)"/>
<path d="M0 0 C1.32 0 2.64 0 4 0 C3.75 3.375 3.75 3.375 3 7 C0.9375 8.4375 0.9375 8.4375 -1 9 C-2.0326802 6.21176345 -2.04509293 5.1322726 -1.0625 2.25 C-0.711875 1.5075 -0.36125 0.765 0 0 Z " fill="#7D1493" transform="translate(110,78)"/>
<path d="M0 0 C-2.48434437 2.34290892 -3.77731593 2.97982934 -7.234375 3.29296875 C-8.39453125 3.25816406 -9.5546875 3.22335937 -10.75 3.1875 C-11.92046875 3.16042969 -13.0909375 3.13335937 -14.296875 3.10546875 C-15.18890625 3.07066406 -16.0809375 3.03585937 -17 3 C-17 2.67 -17 2.34 -17 2 C-14.54316882 1.47097431 -12.08497874 0.95149191 -9.625 0.4375 C-8.92632812 0.28603516 -8.22765625 0.13457031 -7.5078125 -0.02148438 C-2.2265625 -1.11328125 -2.2265625 -1.11328125 0 0 Z " fill="#1D2355" transform="translate(237,343)"/>
<path d="M0 0 C0 0.66 0 1.32 0 2 C0.66 2.33 1.32 2.66 2 3 C2.33 4.32 2.66 5.64 3 7 C0.36 6.01 -2.28 5.02 -5 4 C-4.67 3.01 -4.34 2.02 -4 1 C-2 0 -2 0 0 0 Z " fill="#67179A" transform="translate(328,187)"/>
<path d="M0 0 C1.5625 1.8125 1.5625 1.8125 3 4 C2.67 4.99 2.34 5.98 2 7 C0.5393715 4.35261084 0 3.10551666 0 0 Z M-5 5 C-3.02 5.66 -1.04 6.32 1 7 C-0.32 7.33 -1.64 7.66 -3 8 C-3 8.66 -3 9.32 -3 10 C-4.32 10 -5.64 10 -7 10 C-7 9.01 -7 8.02 -7 7 C-6.34 7 -5.68 7 -5 7 C-5 6.34 -5 5.68 -5 5 Z " fill="#871B93" transform="translate(107,64)"/>
<path d="M0 0 C0.66 0.66 1.32 1.32 2 2 C-0.52623786 4.52623786 -3.24530578 6.72438303 -6 9 C-6 8.34 -6 7.68 -6 7 C-6.66 6.67 -7.32 6.34 -8 6 C-5.36 4.02 -2.72 2.04 0 0 Z " fill="#4D0F84" transform="translate(162,233)"/>
<path d="M0 0 C1.65 0 3.3 0 5 0 C5 0.66 5 1.32 5 2 C5.99 2.33 6.98 2.66 8 3 C5 5 5 5 3 5 C3 5.66 3 6.32 3 7 C1.68 6.34 0.36 5.68 -1 5 C-0.01 4.34 0.98 3.68 2 3 C1.34 2.67 0.68 2.34 0 2 C0 1.34 0 0.68 0 0 Z " fill="#4B1674" transform="translate(86,247)"/>
<path d="M0 0 C1.65 0 3.3 0 5 0 C5 1.32 5 2.64 5 4 C3.35 4.33 1.7 4.66 0 5 C-0.33 4.01 -0.66 3.02 -1 2 C-0.67 1.34 -0.34 0.68 0 0 Z " fill="#36136D" transform="translate(91,276)"/>
<path d="M0 0 C0.66 0.99 1.32 1.98 2 3 C1.34 3 0.68 3 0 3 C-0.33 4.65 -0.66 6.3 -1 8 C-1.99 7.67 -2.98 7.34 -4 7 C-4 5.35 -4 3.7 -4 2 C-2.68 1.34 -1.36 0.68 0 0 Z " fill="#491477" transform="translate(88,258)"/>
<path d="M0 0 C7.5273523 4.11378556 7.5273523 4.11378556 9.5 7.8125 C9.665 8.534375 9.83 9.25625 10 10 C9.01 10.495 9.01 10.495 8 11 C7.67 9.35 7.34 7.7 7 6 C4.03 5.505 4.03 5.505 1 5 C0.67 3.35 0.34 1.7 0 0 Z " fill="#24128D" transform="translate(326,200)"/>
<path d="M0 0 C0.82638376 2.89234315 1 4.88742431 1 8 C-0.65 8.33 -2.3 8.66 -4 9 C-4.33 8.34 -4.66 7.68 -5 7 C-4.01 7 -3.02 7 -2 7 C-2.061875 5.824375 -2.061875 5.824375 -2.125 4.625 C-2 2 -2 2 0 0 Z " fill="#520A82" transform="translate(339,196)"/>
<path d="M0 0 C2.4375 0.75 2.4375 0.75 5 2 C5.8125 4.125 5.8125 4.125 6 6 C5.01 6 4.02 6 3 6 C2.34 6.66 1.68 7.32 1 8 C0.67 7.34 0.34 6.68 0 6 C0.66 5.01 1.32 4.02 2 3 C1.01 2.34 0.02 1.68 -1 1 C-0.67 0.67 -0.34 0.34 0 0 Z " fill="#481586" transform="translate(111,282)"/>
<path d="M0 0 C0 0.66 0 1.32 0 2 C-0.66 2 -1.32 2 -2 2 C-1.67 2.99 -1.34 3.98 -1 5 C-1.99 5 -2.98 5 -4 5 C-4.66 4.34 -5.32 3.68 -6 3 C-6 2.01 -6 1.02 -6 0 C-3 -1 -3 -1 0 0 Z " fill="#65128D" transform="translate(156,226)"/>
<path d="M0 0 C0.103125 0.639375 0.20625 1.27875 0.3125 1.9375 C0.539375 2.618125 0.76625 3.29875 1 4 C1.99 4.33 2.98 4.66 4 5 C1.53721199 6.231394 -0.2795055 6.07159196 -3 6 C-3.33 4.35 -3.66 2.7 -4 1 C-2.68 0.67 -1.36 0.34 0 0 Z " fill="#420560" transform="translate(348,56)"/>
<path d="M0 0 C2.97 0 5.94 0 9 0 C6.30992402 2.69007598 3.63144185 3.02729236 0 4 C-0.99 4.495 -0.99 4.495 -2 5 C-1.34 3.35 -0.68 1.7 0 0 Z " fill="#0E153F" transform="translate(209,347)"/>
<path d="M0 0 C0.33 0 0.66 0 1 0 C2.24327778 5.84340558 1.57300962 10.26696495 0 16 C-0.33 16 -0.66 16 -1 16 C-1.02712153 14.083412 -1.04645097 12.1667127 -1.0625 10.25 C-1.07410156 9.18265625 -1.08570313 8.1153125 -1.09765625 7.015625 C-1.01510087 4.46631499 -0.74617558 2.42066409 0 0 Z " fill="#000D47" transform="translate(234,296)"/>
<path d="M0 0 C3 1 3 1 4.1875 3.0625 C4.455625 3.701875 4.72375 4.34125 5 5 C3.02 5.99 3.02 5.99 1 7 C-0.0625 5.1875 -0.0625 5.1875 -1 3 C-0.67 2.01 -0.34 1.02 0 0 Z " fill="#341A71" transform="translate(144,290)"/>
<path d="M0 0 C0.99 0.33 1.98 0.66 3 1 C1.02 3.31 -0.96 5.62 -3 8 C-3.33 7.34 -3.66 6.68 -4 6 C-1.68421053 1.68421053 -1.68421053 1.68421053 0 0 Z " fill="#072B79" transform="translate(339,265)"/>
<path d="M0 0 C1.32 0 2.64 0 4 0 C4 1.32 4 2.64 4 4 C0.535 5.485 0.535 5.485 -3 7 C-1.125 2.25 -1.125 2.25 0 0 Z " fill="#071274" transform="translate(353,253)"/>
<path d="M0 0 C0.66 0.99 1.32 1.98 2 3 C1.67 3.99 1.34 4.98 1 6 C0.34 6 -0.32 6 -1 6 C-1.33 6.66 -1.66 7.32 -2 8 C-2.66 6.35 -3.32 4.7 -4 3 C-2.68 2.01 -1.36 1.02 0 0 Z " fill="#420D7F" transform="translate(146,244)"/>
<path d="M0 0 C2.10814567 4.21629134 2.17700355 6.39790775 2 11 C1.01 11.33 0.02 11.66 -1 12 C-0.67 8.04 -0.34 4.08 0 0 Z " fill="#230D60" transform="translate(293,174)"/>
<path d="M0 0 C2.31 0 4.62 0 7 0 C7 1.32 7 2.64 7 4 C7.66 4.33 8.32 4.66 9 5 C8.01 5 7.02 5 6 5 C5.67 5.66 5.34 6.32 5 7 C4.67 5.02 4.34 3.04 4 1 C2.68 0.67 1.36 0.34 0 0 Z " fill="#9A2A9C" transform="translate(37,0)"/>
<path d="M0 0 C0.66 0.99 1.32 1.98 2 3 C1.01 3 0.02 3 -1 3 C-2.5159375 3.061875 -2.5159375 3.061875 -4.0625 3.125 C-7 3 -7 3 -9 1 C-5.73842267 -0.08719244 -3.41589896 -0.29071481 0 0 Z " fill="#030629" transform="translate(196,351)"/>
<path d="M0 0 C0.99 0.33 1.98 0.66 3 1 C3.6875 3.0625 3.6875 3.0625 4 5 C2.68 5.33 1.36 5.66 0 6 C-1 3 -1 3 0 0 Z M-1 6 C-0.67 6 -0.34 6 0 6 C0 7.65 0 9.3 0 11 C-0.33 11 -0.66 11 -1 11 C-1 9.35 -1 7.7 -1 6 Z " fill="#3A1C76" transform="translate(152,292)"/>
<path d="M0 0 C0.33 1.32 0.66 2.64 1 4 C-1 5 -1 5 -4 6 C-4.33 4.68 -4.66 3.36 -5 2 C-2 0 -2 0 0 0 Z " fill="#061B6B" transform="translate(294,267)"/>
<path d="M0 0 C1.65 0 3.3 0 5 0 C5.66 1.32 6.32 2.64 7 4 C5.68 4.99 4.36 5.98 3 7 C3 5.68 3 4.36 3 3 C2.34 2.67 1.68 2.34 1 2 C0.67 1.34 0.34 0.68 0 0 Z " fill="#1E1764" transform="translate(284,198)"/>
<path d="M0 0 C0.99 0 1.98 0 3 0 C3 0.66 3 1.32 3 2 C3.66 2 4.32 2 5 2 C5 2.66 5 3.32 5 4 C6.32 4.33 7.64 4.66 9 5 C6 6 6 6 3 5 C3 4.34 3 3.68 3 3 C2.01 2.67 1.02 2.34 0 2 C0 1.34 0 0.68 0 0 Z " fill="#3B1C96" transform="translate(312,187)"/>
<path d="M0 0 C0.33 0 0.66 0 1 0 C1.3125 3.1875 1.3125 3.1875 1 7 C-1.5 9.9375 -1.5 9.9375 -4 12 C-3.67 10.35 -3.34 8.7 -3 7 C-2.01 6.67 -1.02 6.34 0 6 C0 4.02 0 2.04 0 0 Z " fill="#2C147E" transform="translate(300,159)"/>
<path d="M0 0 C2.97 0.495 2.97 0.495 6 1 C4.62308038 3.75383923 2.63279958 4.51483101 0 6 C0 4.02 0 2.04 0 0 Z " fill="#592D81" transform="translate(0,167)"/>
<path d="M0 0 C0.68707555 2.49064888 1 4.37886292 1 7 C-0.32 6.34 -1.64 5.68 -3 5 C-2.625 3.0625 -2.625 3.0625 -2 1 C-1.34 0.67 -0.68 0.34 0 0 Z " fill="#69118F" transform="translate(124,91)"/>
<path d="M0 0 C0.99 0.33 1.98 0.66 3 1 C3 1.66 3 2.32 3 3 C4.32 3.33 5.64 3.66 7 4 C5.02 4.33 3.04 4.66 1 5 C0.34 3.68 -0.32 2.36 -1 1 C-0.67 0.67 -0.34 0.34 0 0 Z " fill="#0C2E72" transform="translate(345,238)"/>
<path d="M0 0 C2.97 0.495 2.97 0.495 6 1 C5.54625 1.433125 5.0925 1.86625 4.625 2.3125 C2.79975666 4.10798342 2.79975666 4.10798342 1 7 C0.67 4.69 0.34 2.38 0 0 Z " fill="#0F0C5E" transform="translate(97,288)"/>
<path d="M0 0 C1.9375 0.3125 1.9375 0.3125 4 1 C4.33 1.99 4.66 2.98 5 4 C4.01 4.66 3.02 5.32 2 6 C0 2.25 0 2.25 0 0 Z " fill="#1E0C63" transform="translate(92,281)"/>
<path d="M0 0 C0.33 0.99 0.66 1.98 1 3 C-1.31 3.33 -3.62 3.66 -6 4 C-5.67 3.01 -5.34 2.02 -5 1 C-2 0 -2 0 0 0 Z " fill="#080B64" transform="translate(288,249)"/>
<path d="M0 0 C1.98 0.66 3.96 1.32 6 2 C5.67 2.66 5.34 3.32 5 4 C2.4375 4.625 2.4375 4.625 0 5 C0 3.35 0 1.7 0 0 Z " fill="#191D8C" transform="translate(307,190)"/>
<path d="M0 0 C1.98 0.66 3.96 1.32 6 2 C5.67 2.99 5.34 3.98 5 5 C2.525 4.01 2.525 4.01 0 3 C0 2.01 0 1.02 0 0 Z " fill="#891698" transform="translate(94,66)"/>
</svg>
